<!-- Generated by readme-aura https://github.com/collectioneur/readme-aura -->
<svg width="820" height="80" viewBox="0 0 820 80" xmlns="http://www.w3.org/2000/svg"><mask id="satori_om-id"><rect x="0" y="0" width="820" height="80" fill="#fff"/></mask><rect x="0" y="0" width="820" height="80" fill="#0d1117"/><defs><clipPath id="satori_bc-id-0"><path x="120" y="16" width="135" height="48" d="M128,16 h119 a8,8 0 0 1 8,8 v32 a8,8 0 0 1 -8,8 h-119 a8,8 0 0 1 -8,-8 v-32 a8,8 0 0 1 8,-8"/></clipPath></defs><mask id="satori_om-id-0"><rect x="121" y="17" width="133" height="46" fill="#fff"/><path width="135" height="48" fill="none" stroke="#000" stroke-width="2" d="M122.343,18.343 A8,8 0 0 1 128,16 h119 a8,8 0 0 1 8,8 v32 a8,8 0 0 1 -8,8 h-119 a8,8 0 0 1 -8,-8 v-32 A8,8 0 0 1 122.343,18.343"/></mask><path x="120" y="16" width="135" height="48" fill="#0a0a0f" d="M128,16 h119 a8,8 0 0 1 8,8 v32 a8,8 0 0 1 -8,8 h-119 a8,8 0 0 1 -8,-8 v-32 a8,8 0 0 1 8,-8"/><path width="135" height="48" clip-path="url(#satori_bc-id-0)" fill="none" stroke="#00d4ff44" stroke-width="2" d="M122.343,18.343 A8,8 0 0 1 128,16 h119 a8,8 0 0 1 8,8 v32 a8,8 0 0 1 -8,8 h-119 a8,8 0 0 1 -8,-8 v-32 A8,8 0 0 1 122.343,18.343"/><mask id="satori_om-id-0-0"><rect x="145" y="27" width="26" height="26" fill="#fff"/></mask><path x="145" y="27" width="26" height="26" fill="#00d4ff22" d="M151,27 h14 a6,6 0 0 1 6,6 v14 a6,6 0 0 1 -6,6 h-14 a6,6 0 0 1 -6,-6 v-14 a6,6 0 0 1 6,-6"/><g  ><path fill="#00d4ff" d="M149.9 44L148.2 44L146.2 36.7L147.9 36.7L148.7 40.3Q148.8 40.8 148.9 41.3Q149.0 41.8 149.1 42.3L149.1 42.3Q149.1 42.4 149.1 42.5L149.1 42.5Q149.1 42.4 149.1 42.3L149.1 42.3Q149.2 41.8 149.3 41.3Q149.4 40.8 149.5 40.3L149.5 40.3L150.4 36.7L152.0 36.7L152.8 40.3Q153.0 40.8 153.1 41.3Q153.1 41.8 153.2 42.3L153.2 42.3Q153.3 42.4 153.3 42.5L153.3 42.5Q153.3 42.4 153.3 42.3L153.3 42.3Q153.4 41.8 153.5 41.3Q153.6 40.8 153.7 40.3L153.7 40.3L154.5 36.7L156.1 36.7L154.2 44L152.5 44L151.5 40.3Q151.4 39.7 151.2 38.9L151.2 38.9Q151.2 38.7 151.2 38.5L151.2 38.5Q151.2 38.7 151.1 38.9L151.1 38.9Q151.0 39.6 150.9 40.3L150.9 40.3L149.9 44ZM161.9 44L157.0 44L157.0 36.7L161.9 36.7L161.9 38.0L158.5 38.0L158.5 39.7L161.6 39.7L161.6 40.9L158.5 40.9L158.5 42.8L161.9 42.8L161.9 44ZM166.2 44L163.1 44L163.1 36.7L166.0 36.7Q166.8 36.7 167.3 37.0Q167.9 37.2 168.1 37.6Q168.4 38.0 168.4 38.6L168.4 38.6Q168.4 39.0 168.2 39.3Q168.1 39.7 167.8 39.9Q167.5 40.1 167.1 40.2L167.1 40.2L167.1 40.2Q167.5 40.2 167.9 40.5Q168.2 40.7 168.5 41.1Q168.7 41.5 168.7 42.0L168.7 42.0Q168.7 42.6 168.4 43.0Q168.1 43.5 167.6 43.7Q167.0 44 166.2 44L166.2 44ZM164.6 40.8L164.6 42.8L165.9 42.8Q166.5 42.8 166.8 42.5Q167.1 42.3 167.1 41.9L167.1 41.9Q167.1 41.5 167.0 41.3Q166.8 41.1 166.6 40.9Q166.3 40.8 165.9 40.8L165.9 40.8L164.6 40.8ZM164.6 37.9L164.6 39.8L165.8 39.8Q166.1 39.8 166.3 39.7Q166.6 39.6 166.7 39.3Q166.9 39.1 166.9 38.8L166.9 38.8Q166.9 38.4 166.6 38.2Q166.3 37.9 165.8 37.9L165.8 37.9L164.6 37.9Z "/></g><mask id="satori_om-id-0-1"><rect x="181" y="33" width="49" height="15" fill="#fff"/></mask><g  ><path fill="#00d4ff" d="M185.7 45L183.6 45L181.3 36.3L183.2 36.3L184.3 40.6Q184.4 41.1 184.5 41.7Q184.6 42.3 184.7 42.9L184.7 42.9Q184.7 43.1 184.7 43.2L184.7 43.2Q184.7 43.1 184.8 42.9L184.8 42.9Q184.9 42.3 185.0 41.7Q185.1 41.1 185.2 40.6L185.2 40.6L186.3 36.3L188.2 36.3L189.2 40.6Q189.3 41.1 189.5 41.7Q189.6 42.3 189.7 42.9L189.7 42.9Q189.7 43.1 189.7 43.2L189.7 43.2Q189.7 43.1 189.8 42.9L189.8 42.9Q189.9 42.3 190.0 41.7Q190.1 41.1 190.2 40.6L190.2 40.6L191.2 36.3L193.2 36.3L190.8 45L188.8 45L187.6 40.5Q187.4 39.8 187.3 38.9L187.3 38.9Q187.3 38.7 187.2 38.4L187.2 38.4Q187.2 38.7 187.2 38.9L187.2 38.9Q187.0 39.7 186.8 40.5L186.8 40.5L185.7 45ZM197.2 45.1L197.2 45.1Q196.2 45.1 195.4 44.7Q194.7 44.3 194.3 43.6Q193.9 42.8 193.9 41.8L193.9 41.8Q193.9 40.7 194.3 40.0Q194.7 39.2 195.4 38.8Q196.1 38.4 197.1 38.4L197.1 38.4Q197.7 38.4 198.3 38.6Q198.8 38.8 199.3 39.2Q199.7 39.6 199.9 40.2Q200.1 40.8 200.1 41.7L200.1 41.7L200.1 42.2L195.7 42.2Q195.7 42.7 195.9 43.0L195.9 43.0Q196.0 43.4 196.4 43.6Q196.7 43.8 197.2 43.8L197.2 43.8Q197.5 43.8 197.8 43.7Q198.0 43.6 198.2 43.5Q198.4 43.3 198.5 43.0L198.5 43.0L200.0 43.3Q199.9 43.9 199.5 44.3Q199.1 44.7 198.5 44.9Q197.9 45.1 197.2 45.1ZM195.7 41.1L195.7 41.1L198.5 41.1Q198.4 40.8 198.3 40.5L198.3 40.5Q198.2 40.1 197.8 39.9Q197.5 39.7 197.1 39.7L197.1 39.7Q196.6 39.7 196.3 39.9Q196.0 40.1 195.8 40.5L195.8 40.5Q195.7 40.7 195.7 41.1ZM205.0 45.1L205.0 45.1Q204.5 45.1 204.1 44.9Q203.7 44.7 203.5 44.5Q203.3 44.2 203.2 44.0L203.2 44.0L203.1 44.0L203.1 45L201.3 45L201.3 36.3L203.1 36.3L203.1 39.6L203.2 39.6Q203.3 39.3 203.5 39.0Q203.7 38.7 204.1 38.6Q204.5 38.4 205.0 38.4L205.0 38.4Q205.8 38.4 206.4 38.7Q207.0 39.1 207.3 39.9Q207.7 40.6 207.7 41.7L207.7 41.7Q207.7 42.8 207.3 43.6Q207.0 44.3 206.4 44.7Q205.8 45.1 205.0 45.1ZM204.5 43.7L204.5 43.7Q204.9 43.7 205.2 43.4Q205.6 43.2 205.7 42.8Q205.9 42.3 205.9 41.7L205.9 41.7Q205.9 41.2 205.7 40.7Q205.6 40.3 205.3 40.0Q204.9 39.8 204.5 39.8L204.5 39.8Q204.0 39.8 203.7 40.0Q203.4 40.3 203.2 40.7Q203.1 41.1 203.1 41.7L203.1 41.7Q203.1 42.3 203.2 42.8Q203.4 43.2 203.7 43.5Q204.0 43.7 204.5 43.7ZM211.5 45.1L211.5 45.1Q210.7 45.1 210.1 44.9Q209.5 44.7 209.1 44.2Q208.7 43.8 208.6 43.2L208.6 43.2L210.3 42.9Q210.4 43.4 210.7 43.6Q211.0 43.8 211.6 43.8L211.6 43.8Q212.1 43.8 212.4 43.6Q212.7 43.5 212.7 43.2L212.7 43.2Q212.7 42.9 212.4 42.7Q212.2 42.6 211.8 42.5L211.8 42.5L210.7 42.3Q209.7 42.1 209.3 41.6Q208.8 41.1 208.8 40.4L208.8 40.4Q208.8 39.8 209.1 39.3Q209.5 38.9 210.1 38.6Q210.7 38.4 211.5 38.4L211.5 38.4Q212.3 38.4 212.9 38.6Q213.5 38.8 213.8 39.2Q214.2 39.6 214.3 40.1L214.3 40.1L212.7 40.4Q212.6 40.1 212.3 39.8Q212.0 39.6 211.6 39.6L211.6 39.6Q211.1 39.6 210.8 39.8Q210.5 40.0 210.5 40.3L210.5 40.3Q210.5 40.5 210.7 40.7Q210.9 40.9 211.4 41.0L211.4 41.0L212.6 41.2Q213.5 41.4 214.0 41.8Q214.4 42.3 214.4 43.0L214.4 43.0Q214.4 43.6 214.1 44.1Q213.7 44.6 213.0 44.9Q212.4 45.1 211.5 45.1ZM217.4 45L215.6 45L215.6 38.4L217.4 38.4L217.4 45ZM216.5 37.6L216.5 37.6Q216.1 37.6 215.8 37.3Q215.6 37.1 215.6 36.7L215.6 36.7Q215.6 36.3 215.8 36.1Q216.1 35.8 216.5 35.8L216.5 35.8Q216.9 35.8 217.2 36.0Q217.5 36.3 217.5 36.7L217.5 36.7Q217.5 37.1 217.2 37.3Q216.9 37.6 216.5 37.6ZM220.9 38.4L222.1 38.4L222.1 39.8L220.9 39.8L220.9 43.1Q220.9 43.4 221.1 43.5Q221.2 43.7 221.5 43.7L221.5 43.7Q221.6 43.7 221.8 43.7Q222.0 43.6 222.1 43.6L222.1 43.6L222.3 44.9Q222.0 45.0 221.7 45.1Q221.4 45.1 221.2 45.1L221.2 45.1Q220.2 45.1 219.7 44.6Q219.2 44.1 219.2 43.2L219.2 43.2L219.2 39.8L218.3 39.8L218.3 38.4L219.2 38.4L219.2 36.9L220.9 36.9L220.9 38.4ZM226.2 45.1L226.2 45.1Q225.2 45.1 224.5 44.7Q223.8 44.3 223.4 43.6Q223.0 42.8 223.0 41.8L223.0 41.8Q223.0 40.7 223.4 40.0Q223.8 39.2 224.5 38.8Q225.2 38.4 226.2 38.4L226.2 38.4Q226.8 38.4 227.4 38.6Q227.9 38.8 228.3 39.2Q228.8 39.6 229.0 40.2Q229.2 40.8 229.2 41.7L229.2 41.7L229.2 42.2L224.7 42.2Q224.8 42.7 224.9 43.0L224.9 43.0Q225.1 43.4 225.5 43.6Q225.8 43.8 226.3 43.8L226.3 43.8Q226.6 43.8 226.8 43.7Q227.1 43.6 227.3 43.5Q227.4 43.3 227.5 43.0L227.5 43.0L229.1 43.3Q229.0 43.9 228.6 44.3Q228.2 44.7 227.6 44.9Q227.0 45.1 226.2 45.1ZM224.8 41.1L224.8 41.1L227.5 41.1Q227.5 40.8 227.4 40.5L227.4 40.5Q227.2 40.1 226.9 39.9Q226.6 39.7 226.2 39.7L226.2 39.7Q225.7 39.7 225.4 39.9Q225.1 40.1 224.9 40.5L224.9 40.5Q224.8 40.7 224.8 41.1Z "/></g><defs><clipPath id="satori_bc-id-1"><path x="271" y="16" width="137" height="48" d="M279,16 h121 a8,8 0 0 1 8,8 v32 a8,8 0 0 1 -8,8 h-121 a8,8 0 0 1 -8,-8 v-32 a8,8 0 0 1 8,-8"/></clipPath></defs><mask id="satori_om-id-1"><rect x="272" y="17" width="135" height="46" fill="#fff"/><path width="137" height="48" fill="none" stroke="#000" stroke-width="2" d="M273.343,18.343 A8,8 0 0 1 279,16 h121 a8,8 0 0 1 8,8 v32 a8,8 0 0 1 -8,8 h-121 a8,8 0 0 1 -8,-8 v-32 A8,8 0 0 1 273.343,18.343"/></mask><path x="271" y="16" width="137" height="48" fill="#0a0a0f" d="M279,16 h121 a8,8 0 0 1 8,8 v32 a8,8 0 0 1 -8,8 h-121 a8,8 0 0 1 -8,-8 v-32 a8,8 0 0 1 8,-8"/><path width="137" height="48" clip-path="url(#satori_bc-id-1)" fill="none" stroke="#0A66C244" stroke-width="2" d="M273.343,18.343 A8,8 0 0 1 279,16 h121 a8,8 0 0 1 8,8 v32 a8,8 0 0 1 -8,8 h-121 a8,8 0 0 1 -8,-8 v-32 A8,8 0 0 1 273.343,18.343"/><mask id="satori_om-id-1-0"><rect x="296" y="27" width="26" height="26" fill="#fff"/></mask><path x="296" y="27" width="26" height="26" fill="#0A66C222" d="M302,27 h14 a6,6 0 0 1 6,6 v14 a6,6 0 0 1 -6,6 h-14 a6,6 0 0 1 -6,-6 v-14 a6,6 0 0 1 6,-6"/><g  ><path fill="#0A66C2" d="M303.7 36.7L305.1 36.7L305.1 44L303.7 44L303.7 36.7ZM308.0 44L306.5 44L306.5 36.7L308.1 36.7L310.4 40.4Q310.6 40.7 310.8 41.0Q311.0 41.4 311.2 41.8L311.2 41.8Q311.2 42.0 311.3 42.2L311.3 42.2Q311.3 42.0 311.3 41.8L311.3 41.8Q311.3 41.3 311.3 40.9Q311.2 40.5 311.2 40.2L311.2 40.2L311.2 36.7L312.8 36.7L312.8 44L311.1 44L309.0 40.7Q308.8 40.3 308.6 39.9Q308.4 39.6 308.2 39.1L308.2 39.1Q308.1 38.9 307.9 38.6L307.9 38.6Q307.9 38.9 307.9 39.1L307.9 39.1Q308.0 39.6 308.0 40.0Q308.0 40.4 308.0 40.7L308.0 40.7L308.0 44Z "/></g><mask id="satori_om-id-1-1"><rect x="332" y="33" width="51" height="15" fill="#fff"/></mask><g  ><path fill="#0A66C2" d="M338.3 45L332.8 45L332.8 36.3L334.6 36.3L334.6 43.5L338.3 43.5L338.3 45ZM341.3 45L339.5 45L339.5 38.4L341.3 38.4L341.3 45ZM340.4 37.6L340.4 37.6Q340.0 37.6 339.7 37.3Q339.5 37.1 339.5 36.7L339.5 36.7Q339.5 36.3 339.7 36.1Q340.0 35.8 340.4 35.8L340.4 35.8Q340.8 35.8 341.1 36.0Q341.4 36.3 341.4 36.7L341.4 36.7Q341.4 37.1 341.1 37.3Q340.8 37.6 340.4 37.6ZM344.5 41.2L344.5 41.2L344.5 45L342.8 45L342.8 38.4L344.4 38.4L344.5 39.8Q344.7 39.2 345.2 38.8L345.2 38.8Q345.7 38.4 346.5 38.4L346.5 38.4Q347.2 38.4 347.7 38.7Q348.2 39.0 348.5 39.5Q348.8 40.1 348.8 40.8L348.8 40.8L348.8 45L347 45L347 41.1Q347 40.5 346.7 40.2Q346.4 39.8 345.8 39.8L345.8 39.8Q345.4 39.8 345.2 40.0Q344.9 40.2 344.7 40.5Q344.5 40.8 344.5 41.2ZM352.0 45L350.3 45L350.3 36.3L352.0 36.3L352.0 41.0L352.1 41.0L354.3 38.4L356.3 38.4L353.8 41.3L356.4 45L354.3 45L352.5 42.3L352.0 42.9L352.0 45ZM360.2 45.1L360.2 45.1Q359.2 45.1 358.4 44.7Q357.7 44.3 357.3 43.6Q356.9 42.8 356.9 41.8L356.9 41.8Q356.9 40.7 357.3 40.0Q357.7 39.2 358.4 38.8Q359.1 38.4 360.1 38.4L360.1 38.4Q360.7 38.4 361.3 38.6Q361.8 38.8 362.3 39.2Q362.7 39.6 362.9 40.2Q363.2 40.8 363.2 41.7L363.2 41.7L363.2 42.2L358.7 42.2Q358.7 42.7 358.9 43.0L358.9 43.0Q359.1 43.4 359.4 43.6Q359.8 43.8 360.2 43.8L360.2 43.8Q360.5 43.8 360.8 43.7Q361.0 43.6 361.2 43.5Q361.4 43.3 361.5 43.0L361.5 43.0L363.1 43.3Q362.9 43.9 362.5 44.3Q362.1 44.7 361.5 44.9Q360.9 45.1 360.2 45.1ZM358.7 41.1L358.7 41.1L361.5 41.1Q361.4 40.8 361.3 40.5L361.3 40.5Q361.2 40.1 360.9 39.9Q360.6 39.7 360.1 39.7L360.1 39.7Q359.7 39.7 359.3 39.9Q359.0 40.1 358.8 40.5L358.8 40.5Q358.7 40.7 358.7 41.1ZM366.8 45.1L366.8 45.1Q366.0 45.1 365.4 44.7Q364.8 44.3 364.4 43.6Q364.1 42.8 364.1 41.7L364.1 41.7Q364.1 40.6 364.5 39.9Q364.8 39.1 365.4 38.7Q366.0 38.4 366.8 38.4L366.8 38.4Q367.3 38.4 367.7 38.6Q368.0 38.7 368.3 39.0Q368.5 39.3 368.6 39.6L368.6 39.6L368.7 39.6L368.7 36.3L370.4 36.3L370.4 45L368.7 45L368.7 44.0L368.6 44.0Q368.5 44.2 368.3 44.5Q368.0 44.7 367.7 44.9Q367.3 45.1 366.8 45.1ZM367.3 43.7L367.3 43.7Q367.7 43.7 368.1 43.5Q368.4 43.2 368.5 42.8Q368.7 42.3 368.7 41.7L368.7 41.7Q368.7 41.1 368.5 40.7Q368.4 40.3 368.1 40.0Q367.8 39.8 367.3 39.8L367.3 39.8Q366.8 39.8 366.5 40.0Q366.2 40.3 366.1 40.7Q365.9 41.2 365.9 41.7L365.9 41.7Q365.9 42.3 366.1 42.8Q366.2 43.2 366.5 43.4Q366.8 43.7 367.3 43.7ZM372.0 36.3L373.8 36.3L373.8 45L372.0 45L372.0 36.3ZM377.1 41.2L377.1 41.2L377.1 45L375.3 45L375.3 38.4L377.0 38.4L377.0 39.8Q377.2 39.2 377.7 38.8L377.7 38.8Q378.2 38.4 379.0 38.4L379.0 38.4Q379.7 38.4 380.2 38.7Q380.7 39.0 381.0 39.5Q381.3 40.1 381.3 40.8L381.3 40.8L381.3 45L379.5 45L379.5 41.1Q379.5 40.5 379.2 40.2Q378.9 39.8 378.3 39.8L378.3 39.8Q378.0 39.8 377.7 40.0Q377.4 40.2 377.2 40.5Q377.1 40.8 377.1 41.2Z "/></g><defs><clipPath id="satori_bc-id-2"><path x="424" y="16" width="130" height="48" d="M432,16 h114 a8,8 0 0 1 8,8 v32 a8,8 0 0 1 -8,8 h-114 a8,8 0 0 1 -8,-8 v-32 a8,8 0 0 1 8,-8"/></clipPath></defs><mask id="satori_om-id-2"><rect x="425" y="17" width="128" height="46" fill="#fff"/><path width="130" height="48" fill="none" stroke="#000" stroke-width="2" d="M426.343,18.343 A8,8 0 0 1 432,16 h114 a8,8 0 0 1 8,8 v32 a8,8 0 0 1 -8,8 h-114 a8,8 0 0 1 -8,-8 v-32 A8,8 0 0 1 426.343,18.343"/></mask><path x="424" y="16" width="130" height="48" fill="#0a0a0f" d="M432,16 h114 a8,8 0 0 1 8,8 v32 a8,8 0 0 1 -8,8 h-114 a8,8 0 0 1 -8,-8 v-32 a8,8 0 0 1 8,-8"/><path width="130" height="48" clip-path="url(#satori_bc-id-2)" fill="none" stroke="#e6edf344" stroke-width="2" d="M426.343,18.343 A8,8 0 0 1 432,16 h114 a8,8 0 0 1 8,8 v32 a8,8 0 0 1 -8,8 h-114 a8,8 0 0 1 -8,-8 v-32 A8,8 0 0 1 426.343,18.343"/><mask id="satori_om-id-2-0"><rect x="449" y="27" width="26" height="26" fill="#fff"/></mask><path x="449" y="27" width="26" height="26" fill="#e6edf322" d="M455,27 h14 a6,6 0 0 1 6,6 v14 a6,6 0 0 1 -6,6 h-14 a6,6 0 0 1 -6,-6 v-14 a6,6 0 0 1 6,-6"/><g  ><path fill="#e6edf3" d="M457.9 44.1L457.9 44.1Q456.9 44.1 456.1 43.6Q455.3 43.2 454.9 42.4Q454.5 41.5 454.5 40.4L454.5 40.4Q454.5 39.2 454.9 38.4Q455.4 37.5 456.1 37.1Q456.9 36.6 457.8 36.6L457.8 36.6Q458.5 36.6 459.0 36.8Q459.5 37.0 459.9 37.3Q460.3 37.6 460.6 38.1Q460.9 38.5 460.9 39.1L460.9 39.1L459.4 39.1Q459.4 38.8 459.2 38.6Q459.1 38.4 458.9 38.2Q458.7 38.1 458.4 38.0Q458.2 38.0 457.9 38.0L457.9 38.0Q457.3 38.0 456.9 38.2Q456.5 38.5 456.2 39.0Q456.0 39.6 456.0 40.4Q456.0 41.1 456.2 41.7Q456.4 42.2 456.9 42.5Q457.3 42.8 457.9 42.8L457.9 42.8Q458.4 42.8 458.8 42.6Q459.2 42.4 459.4 42.0L459.4 42.0Q459.6 41.7 459.6 41.3L459.6 41.3L458.0 41.3L458.0 40.1L461.0 40.1L461.0 41.0Q461.0 42.0 460.6 42.7Q460.2 43.4 459.5 43.7Q458.8 44.1 457.9 44.1ZM463.7 44L462.2 44L462.2 36.7L463.7 36.7L463.7 39.7L466.8 39.7L466.8 36.7L468.3 36.7L468.3 44L466.8 44L466.8 40.9L463.7 40.9L463.7 44Z "/></g><mask id="satori_om-id-2-1"><rect x="485" y="33" width="41" height="15" fill="#fff"/></mask><g  ><path fill="#e6edf3" d="M489.7 45.1L489.7 45.1Q488.4 45.1 487.5 44.6Q486.6 44.0 486.1 43.0Q485.6 42.0 485.6 40.6L485.6 40.6Q485.6 39.2 486.1 38.2Q486.6 37.2 487.5 36.7Q488.5 36.2 489.6 36.2L489.6 36.2Q490.4 36.2 491.0 36.4Q491.6 36.6 492.1 37.0Q492.6 37.4 492.9 37.9Q493.2 38.4 493.3 39.1L493.3 39.1L491.5 39.1Q491.4 38.8 491.3 38.5Q491.1 38.3 490.9 38.1Q490.6 37.9 490.3 37.8Q490.0 37.7 489.6 37.7L489.6 37.7Q489.0 37.7 488.5 38.1Q487.9 38.4 487.7 39.1Q487.4 39.7 487.4 40.6Q487.4 41.6 487.7 42.2Q487.9 42.8 488.5 43.2Q489.0 43.5 489.7 43.5L489.7 43.5Q490.3 43.5 490.8 43.3Q491.2 43.1 491.5 42.6L491.5 42.6Q491.7 42.2 491.7 41.7L491.7 41.7L489.8 41.7L489.8 40.3L493.4 40.3L493.4 41.4Q493.4 42.6 492.9 43.4Q492.5 44.2 491.6 44.7Q490.8 45.1 489.7 45.1ZM496.5 45L494.8 45L494.8 38.4L496.5 38.4L496.5 45ZM495.6 37.6L495.6 37.6Q495.2 37.6 495.0 37.3Q494.7 37.1 494.7 36.7L494.7 36.7Q494.7 36.3 495.0 36.1Q495.2 35.8 495.6 35.8L495.6 35.8Q496.0 35.8 496.3 36.0Q496.6 36.3 496.6 36.7L496.6 36.7Q496.6 37.1 496.3 37.3Q496.0 37.6 495.6 37.6ZM500.0 38.4L501.3 38.4L501.3 39.8L500.0 39.8L500.0 43.1Q500.0 43.4 500.2 43.5Q500.3 43.7 500.6 43.7L500.6 43.7Q500.7 43.7 500.9 43.7Q501.1 43.6 501.2 43.6L501.2 43.6L501.4 44.9Q501.1 45.0 500.9 45.1Q500.6 45.1 500.3 45.1L500.3 45.1Q499.3 45.1 498.8 44.6Q498.3 44.1 498.3 43.2L498.3 43.2L498.3 39.8L497.4 39.8L497.4 38.4L498.3 38.4L498.3 36.9L500.0 36.9L500.0 38.4ZM504.2 45L502.4 45L502.4 36.3L504.2 36.3L504.2 39.8L508.0 39.8L508.0 36.3L509.8 36.3L509.8 45L508.0 45L508.0 41.3L504.2 41.3L504.2 45ZM513.6 45.1L513.6 45.1Q512.9 45.1 512.4 44.8Q511.9 44.5 511.6 43.9Q511.4 43.4 511.4 42.6L511.4 42.6L511.4 38.4L513.1 38.4L513.1 42.3Q513.1 42.9 513.4 43.3Q513.8 43.6 514.3 43.6L514.3 43.6Q514.7 43.6 515.0 43.5Q515.3 43.3 515.4 43.0Q515.6 42.7 515.6 42.2L515.6 42.2L515.6 38.4L517.3 38.4L517.3 45L515.7 45L515.7 43.6Q515.4 44.3 515.0 44.6L515.0 44.6Q514.4 45.1 513.6 45.1ZM522.5 45.1L522.5 45.1Q522.0 45.1 521.6 44.9Q521.2 44.7 521.0 44.5Q520.8 44.2 520.6 44.0L520.6 44.0L520.6 44.0L520.6 45L518.8 45L518.8 36.3L520.6 36.3L520.6 39.6L520.6 39.6Q520.8 39.3 521.0 39.0Q521.2 38.7 521.6 38.6Q522.0 38.4 522.5 38.4L522.5 38.4Q523.2 38.4 523.8 38.7Q524.5 39.1 524.8 39.9Q525.2 40.6 525.2 41.7L525.2 41.7Q525.2 42.8 524.8 43.6Q524.5 44.3 523.9 44.7Q523.3 45.1 522.5 45.1ZM522.0 43.7L522.0 43.7Q522.4 43.7 522.7 43.4Q523.1 43.2 523.2 42.8Q523.4 42.3 523.4 41.7L523.4 41.7Q523.4 41.2 523.2 40.7Q523.1 40.3 522.7 40.0Q522.4 39.8 522.0 39.8L522.0 39.8Q521.5 39.8 521.2 40.0Q520.9 40.3 520.7 40.7Q520.6 41.1 520.6 41.7L520.6 41.7Q520.6 42.3 520.7 42.8Q520.9 43.2 521.2 43.5Q521.5 43.7 522.0 43.7Z "/></g><defs><clipPath id="satori_bc-id-3"><path x="570" y="16" width="130" height="48" d="M578,16 h114 a8,8 0 0 1 8,8 v32 a8,8 0 0 1 -8,8 h-114 a8,8 0 0 1 -8,-8 v-32 a8,8 0 0 1 8,-8"/></clipPath></defs><mask id="satori_om-id-3"><rect x="571" y="17" width="128" height="46" fill="#fff"/><path width="130" height="48" fill="none" stroke="#000" stroke-width="2" d="M572.343,18.343 A8,8 0 0 1 578,16 h114 a8,8 0 0 1 8,8 v32 a8,8 0 0 1 -8,8 h-114 a8,8 0 0 1 -8,-8 v-32 A8,8 0 0 1 572.343,18.343"/></mask><path x="570" y="16" width="130" height="48" fill="#0a0a0f" d="M578,16 h114 a8,8 0 0 1 8,8 v32 a8,8 0 0 1 -8,8 h-114 a8,8 0 0 1 -8,-8 v-32 a8,8 0 0 1 8,-8"/><path width="130" height="48" clip-path="url(#satori_bc-id-3)" fill="none" stroke="#FF6B3544" stroke-width="2" d="M572.343,18.343 A8,8 0 0 1 578,16 h114 a8,8 0 0 1 8,8 v32 a8,8 0 0 1 -8,8 h-114 a8,8 0 0 1 -8,-8 v-32 A8,8 0 0 1 572.343,18.343"/><mask id="satori_om-id-3-0"><rect x="595" y="27" width="26" height="26" fill="#fff"/></mask><path x="595" y="27" width="26" height="26" fill="#FF6B3522" d="M601,27 h14 a6,6 0 0 1 6,6 v14 a6,6 0 0 1 -6,6 h-14 a6,6 0 0 1 -6,-6 v-14 a6,6 0 0 1 6,-6"/><g  ><path fill="#FF6B35" d="M604.8 44.1L604.8 44.1Q603.9 44.1 603.1 43.7Q602.3 43.2 601.9 42.4Q601.5 41.5 601.5 40.4L601.5 40.4Q601.5 39.2 601.9 38.3Q602.3 37.5 603.1 37.1Q603.9 36.6 604.8 36.6L604.8 36.6Q605.5 36.6 606.0 36.8Q606.5 37.0 606.9 37.3Q607.4 37.6 607.6 38.1Q607.9 38.6 608.0 39.2L608.0 39.2L606.5 39.2Q606.4 38.9 606.3 38.7Q606.1 38.4 605.9 38.3Q605.7 38.1 605.4 38.0Q605.2 38.0 604.9 38.0L604.9 38.0Q604.3 38.0 603.9 38.2Q603.4 38.5 603.2 39.1Q603.0 39.6 603.0 40.4L603.0 40.4Q603.0 41.2 603.2 41.7Q603.5 42.2 603.9 42.5Q604.3 42.8 604.9 42.8L604.9 42.8Q605.2 42.8 605.4 42.7Q605.7 42.6 605.9 42.4Q606.1 42.3 606.3 42.0Q606.4 41.8 606.5 41.5L606.5 41.5L608.0 41.5Q607.9 42.0 607.7 42.5Q607.4 42.9 607.0 43.3Q606.6 43.7 606.1 43.9Q605.5 44.1 604.8 44.1ZM610.5 44L609.1 44L609.1 36.7L611.9 36.7Q612.7 36.7 613.3 37.0Q613.9 37.3 614.2 37.8Q614.5 38.4 614.5 39.1Q614.5 39.8 614.2 40.3Q613.9 40.9 613.3 41.1L613.3 41.1Q613.2 41.1 613.2 41.2L613.2 41.2L614.8 44L613.1 44L611.7 41.4L610.5 41.4L610.5 44ZM610.5 38.0L610.5 40.2L611.6 40.2Q612.1 40.2 612.4 40.1Q612.7 39.9 612.8 39.7Q613.0 39.5 613.0 39.1L613.0 39.1Q613.0 38.7 612.8 38.5Q612.7 38.2 612.4 38.1Q612.1 38.0 611.6 38.0L611.6 38.0L610.5 38.0Z "/></g><mask id="satori_om-id-3-1"><rect x="631" y="33" width="39" height="15" fill="#fff"/></mask><g  ><path fill="#FF6B35" d="M635.6 45.1L635.6 45.1Q634.4 45.1 633.5 44.6Q632.6 44.1 632.1 43.1Q631.6 42.1 631.6 40.6L631.6 40.6Q631.6 39.2 632.1 38.2Q632.6 37.2 633.5 36.7Q634.5 36.2 635.6 36.2L635.6 36.2Q636.3 36.2 637.0 36.4Q637.6 36.6 638.1 37.0Q638.6 37.4 638.9 37.9Q639.3 38.5 639.4 39.3L639.4 39.3L637.6 39.3Q637.5 38.9 637.3 38.6Q637.2 38.3 636.9 38.1Q636.7 37.9 636.3 37.8Q636.0 37.7 635.6 37.7L635.6 37.7Q635.0 37.7 634.4 38.1Q633.9 38.4 633.7 39.1Q633.4 39.7 633.4 40.6L633.4 40.6Q633.4 41.6 633.7 42.2Q633.9 42.9 634.5 43.2Q635.0 43.5 635.6 43.5L635.6 43.5Q636.0 43.5 636.3 43.4Q636.6 43.3 636.9 43.1Q637.2 42.9 637.3 42.7Q637.5 42.4 637.6 42.0L637.6 42.0L639.4 42.0Q639.3 42.6 639.0 43.2Q638.7 43.7 638.2 44.2Q637.8 44.6 637.1 44.9Q636.4 45.1 635.6 45.1ZM642.4 45L640.6 45L640.6 38.4L642.3 38.4L642.3 39.6L642.4 39.6Q642.6 39.0 643.0 38.7Q643.4 38.4 644.0 38.4L644.0 38.4Q644.1 38.4 644.3 38.4Q644.4 38.4 644.5 38.4L644.5 38.4L644.5 40.0Q644.4 39.9 644.2 39.9Q644.0 39.9 643.8 39.9L643.8 39.9Q643.4 39.9 643.1 40.1Q642.7 40.2 642.6 40.6Q642.4 40.9 642.4 41.3L642.4 41.3L642.4 45ZM648.5 45.1L648.5 45.1Q647.5 45.1 646.7 44.7Q646.0 44.3 645.6 43.6Q645.2 42.8 645.2 41.8L645.2 41.8Q645.2 40.7 645.6 40.0Q646.0 39.2 646.7 38.8Q647.4 38.4 648.4 38.4L648.4 38.4Q649.0 38.4 649.6 38.6Q650.1 38.8 650.6 39.2Q651.0 39.6 651.2 40.2Q651.5 40.8 651.5 41.7L651.5 41.7L651.5 42.2L647.0 42.2Q647.0 42.7 647.2 43.0L647.2 43.0Q647.4 43.4 647.7 43.6Q648.0 43.8 648.5 43.8L648.5 43.8Q648.8 43.8 649.1 43.7Q649.3 43.6 649.5 43.5Q649.7 43.3 649.8 43.0L649.8 43.0L651.4 43.3Q651.2 43.9 650.8 44.3Q650.4 44.7 649.8 44.9Q649.2 45.1 648.5 45.1ZM647.0 41.1L647.0 41.1L649.8 41.1Q649.7 40.8 649.6 40.5L649.6 40.5Q649.5 40.1 649.2 39.9Q648.9 39.7 648.4 39.7L648.4 39.7Q647.9 39.7 647.6 39.9Q647.3 40.1 647.1 40.5L647.1 40.5Q647.0 40.7 647.0 41.1ZM655.1 45.1L655.1 45.1Q654.3 45.1 653.7 44.7Q653.1 44.3 652.7 43.6Q652.4 42.8 652.4 41.7L652.4 41.7Q652.4 40.6 652.8 39.9Q653.1 39.1 653.7 38.7Q654.3 38.4 655.0 38.4L655.0 38.4Q655.6 38.4 656.0 38.6Q656.3 38.7 656.6 39.0Q656.8 39.3 656.9 39.6L656.9 39.6L657.0 39.6L657.0 36.3L658.7 36.3L658.7 45L657.0 45L657.0 44.0L656.9 44.0Q656.8 44.2 656.6 44.5Q656.3 44.7 656.0 44.9Q655.6 45.1 655.1 45.1ZM655.6 43.7L655.6 43.7Q656.0 43.7 656.4 43.5Q656.7 43.2 656.8 42.8Q657.0 42.3 657.0 41.7L657.0 41.7Q657.0 41.1 656.8 40.7Q656.7 40.3 656.4 40.0Q656.0 39.8 655.6 39.8L655.6 39.8Q655.1 39.8 654.8 40.0Q654.5 40.3 654.3 40.7Q654.2 41.2 654.2 41.7L654.2 41.7Q654.2 42.3 654.4 42.8Q654.5 43.2 654.8 43.4Q655.1 43.7 655.6 43.7ZM660.2 36.3L662.0 36.3L662.0 45L660.2 45L660.2 36.3ZM663.4 47.3L663.4 47.3L663.8 46.0L664.1 46.0Q664.4 46.1 664.7 46.1Q665.0 46.1 665.1 45.9Q665.3 45.7 665.3 45.4L665.3 45.4L665.4 45.0L662.9 38.4L664.8 38.4L665.9 41.8Q666.1 42.5 666.2 43.1L666.2 43.1Q666.3 43.4 666.3 43.6L666.3 43.6Q666.3 43.4 666.4 43.1L666.4 43.1Q666.6 42.5 666.8 41.8L666.8 41.8L667.9 38.4L669.8 38.4L667.0 45.8Q666.8 46.3 666.5 46.7Q666.2 47.1 665.7 47.3Q665.2 47.5 664.6 47.5L664.6 47.5Q664.2 47.5 663.9 47.4Q663.6 47.4 663.4 47.3Z "/></g></svg>