<!-- Generated by readme-aura https://github.com/collectioneur/readme-aura -->
<svg width="820" height="80" viewBox="0 0 820 80" xmlns="http://www.w3.org/2000/svg"><mask id="satori_om-id"><rect x="0" y="0" width="820" height="80" fill="#fff"/></mask><rect x="0" y="0" width="820" height="80" fill="#0d1117"/><defs><clipPath id="satori_bc-id-0"><path x="196" y="16" width="137" height="48" d="M204,16 h121 a8,8 0 0 1 8,8 v32 a8,8 0 0 1 -8,8 h-121 a8,8 0 0 1 -8,-8 v-32 a8,8 0 0 1 8,-8"/></clipPath></defs><mask id="satori_om-id-0"><rect x="197" y="17" width="135" height="46" fill="#fff"/><path width="137" height="48" fill="none" stroke="#000" stroke-width="2" d="M198.343,18.343 A8,8 0 0 1 204,16 h121 a8,8 0 0 1 8,8 v32 a8,8 0 0 1 -8,8 h-121 a8,8 0 0 1 -8,-8 v-32 A8,8 0 0 1 198.343,18.343"/></mask><path x="196" y="16" width="137" height="48" fill="#0a0a0f" d="M204,16 h121 a8,8 0 0 1 8,8 v32 a8,8 0 0 1 -8,8 h-121 a8,8 0 0 1 -8,-8 v-32 a8,8 0 0 1 8,-8"/><path width="137" height="48" clip-path="url(#satori_bc-id-0)" fill="none" stroke="#0A66C244" stroke-width="2" d="M198.343,18.343 A8,8 0 0 1 204,16 h121 a8,8 0 0 1 8,8 v32 a8,8 0 0 1 -8,8 h-121 a8,8 0 0 1 -8,-8 v-32 A8,8 0 0 1 198.343,18.343"/><mask id="satori_om-id-0-0"><rect x="221" y="27" width="26" height="26" fill="#fff"/></mask><path x="221" y="27" width="26" height="26" fill="#0A66C222" d="M227,27 h14 a6,6 0 0 1 6,6 v14 a6,6 0 0 1 -6,6 h-14 a6,6 0 0 1 -6,-6 v-14 a6,6 0 0 1 6,-6"/><g  ><path fill="#0A66C2" d="M228.7 36.7L230.1 36.7L230.1 44L228.7 44L228.7 36.7ZM233.0 44L231.5 44L231.5 36.7L233.1 36.7L235.4 40.4Q235.6 40.7 235.8 41.0Q236.0 41.4 236.2 41.8L236.2 41.8Q236.2 42.0 236.3 42.2L236.3 42.2Q236.3 42.0 236.3 41.8L236.3 41.8Q236.3 41.3 236.3 40.9Q236.2 40.5 236.2 40.2L236.2 40.2L236.2 36.7L237.8 36.7L237.8 44L236.1 44L234.0 40.7Q233.8 40.3 233.6 39.9Q233.4 39.6 233.2 39.1L233.2 39.1Q233.1 38.9 232.9 38.6L232.9 38.6Q232.9 38.9 232.9 39.1L232.9 39.1Q233.0 39.6 233.0 40.0Q233.0 40.4 233.0 40.7L233.0 40.7L233.0 44Z "/></g><mask id="satori_om-id-0-1"><rect x="257" y="33" width="51" height="15" fill="#fff"/></mask><g  ><path fill="#0A66C2" d="M263.3 45L257.8 45L257.8 36.3L259.6 36.3L259.6 43.5L263.3 43.5L263.3 45ZM266.3 45L264.5 45L264.5 38.4L266.3 38.4L266.3 45ZM265.4 37.6L265.4 37.6Q265.0 37.6 264.7 37.3Q264.5 37.1 264.5 36.7L264.5 36.7Q264.5 36.3 264.7 36.1Q265.0 35.8 265.4 35.8L265.4 35.8Q265.8 35.8 266.1 36.0Q266.4 36.3 266.4 36.7L266.4 36.7Q266.4 37.1 266.1 37.3Q265.8 37.6 265.4 37.6ZM269.5 41.2L269.5 41.2L269.5 45L267.8 45L267.8 38.4L269.4 38.4L269.5 39.8Q269.7 39.2 270.2 38.8L270.2 38.8Q270.7 38.4 271.5 38.4L271.5 38.4Q272.2 38.4 272.7 38.7Q273.2 39.0 273.5 39.5Q273.8 40.1 273.8 40.8L273.8 40.8L273.8 45L272 45L272 41.1Q272 40.5 271.7 40.2Q271.4 39.8 270.8 39.8L270.8 39.8Q270.4 39.8 270.2 40.0Q269.9 40.2 269.7 40.5Q269.5 40.8 269.5 41.2ZM277.0 45L275.3 45L275.3 36.3L277.0 36.3L277.0 41.0L277.1 41.0L279.3 38.4L281.3 38.4L278.8 41.3L281.4 45L279.3 45L277.5 42.3L277.0 42.9L277.0 45ZM285.2 45.1L285.2 45.1Q284.2 45.1 283.4 44.7Q282.7 44.3 282.3 43.6Q281.9 42.8 281.9 41.8L281.9 41.8Q281.9 40.7 282.3 40.0Q282.7 39.2 283.4 38.8Q284.1 38.4 285.1 38.4L285.1 38.4Q285.7 38.4 286.3 38.6Q286.8 38.8 287.3 39.2Q287.7 39.6 287.9 40.2Q288.2 40.8 288.2 41.7L288.2 41.7L288.2 42.2L283.7 42.2Q283.7 42.7 283.9 43.0L283.9 43.0Q284.1 43.4 284.4 43.6Q284.8 43.8 285.2 43.8L285.2 43.8Q285.5 43.8 285.8 43.7Q286.0 43.6 286.2 43.5Q286.4 43.3 286.5 43.0L286.5 43.0L288.1 43.3Q287.9 43.9 287.5 44.3Q287.1 44.7 286.5 44.9Q285.9 45.1 285.2 45.1ZM283.7 41.1L283.7 41.1L286.5 41.1Q286.4 40.8 286.3 40.5L286.3 40.5Q286.2 40.1 285.9 39.9Q285.6 39.7 285.1 39.7L285.1 39.7Q284.7 39.7 284.3 39.9Q284.0 40.1 283.8 40.5L283.8 40.5Q283.7 40.7 283.7 41.1ZM291.8 45.1L291.8 45.1Q291.0 45.1 290.4 44.7Q289.8 44.3 289.4 43.6Q289.1 42.8 289.1 41.7L289.1 41.7Q289.1 40.6 289.5 39.9Q289.8 39.1 290.4 38.7Q291.0 38.4 291.8 38.4L291.8 38.4Q292.3 38.4 292.7 38.6Q293.0 38.7 293.3 39.0Q293.5 39.3 293.6 39.6L293.6 39.6L293.7 39.6L293.7 36.3L295.4 36.3L295.4 45L293.7 45L293.7 44.0L293.6 44.0Q293.5 44.2 293.3 44.5Q293.0 44.7 292.7 44.9Q292.3 45.1 291.8 45.1ZM292.3 43.7L292.3 43.7Q292.7 43.7 293.1 43.5Q293.4 43.2 293.5 42.8Q293.7 42.3 293.7 41.7L293.7 41.7Q293.7 41.1 293.5 40.7Q293.4 40.3 293.1 40.0Q292.8 39.8 292.3 39.8L292.3 39.8Q291.8 39.8 291.5 40.0Q291.2 40.3 291.1 40.7Q290.9 41.2 290.9 41.7L290.9 41.7Q290.9 42.3 291.1 42.8Q291.2 43.2 291.5 43.4Q291.8 43.7 292.3 43.7ZM297.0 36.3L298.8 36.3L298.8 45L297.0 45L297.0 36.3ZM302.1 41.2L302.1 41.2L302.1 45L300.3 45L300.3 38.4L302.0 38.4L302.0 39.8Q302.2 39.2 302.7 38.8L302.7 38.8Q303.2 38.4 304.0 38.4L304.0 38.4Q304.7 38.4 305.2 38.7Q305.7 39.0 306.0 39.5Q306.3 40.1 306.3 40.8L306.3 40.8L306.3 45L304.5 45L304.5 41.1Q304.5 40.5 304.2 40.2Q303.9 39.8 303.3 39.8L303.3 39.8Q303.0 39.8 302.7 40.0Q302.4 40.2 302.2 40.5Q302.1 40.8 302.1 41.2Z "/></g><defs><clipPath id="satori_bc-id-1"><path x="349" y="16" width="130" height="48" d="M357,16 h114 a8,8 0 0 1 8,8 v32 a8,8 0 0 1 -8,8 h-114 a8,8 0 0 1 -8,-8 v-32 a8,8 0 0 1 8,-8"/></clipPath></defs><mask id="satori_om-id-1"><rect x="350" y="17" width="128" height="46" fill="#fff"/><path width="130" height="48" fill="none" stroke="#000" stroke-width="2" d="M351.343,18.343 A8,8 0 0 1 357,16 h114 a8,8 0 0 1 8,8 v32 a8,8 0 0 1 -8,8 h-114 a8,8 0 0 1 -8,-8 v-32 A8,8 0 0 1 351.343,18.343"/></mask><path x="349" y="16" width="130" height="48" fill="#0a0a0f" d="M357,16 h114 a8,8 0 0 1 8,8 v32 a8,8 0 0 1 -8,8 h-114 a8,8 0 0 1 -8,-8 v-32 a8,8 0 0 1 8,-8"/><path width="130" height="48" clip-path="url(#satori_bc-id-1)" fill="none" stroke="#e6edf344" stroke-width="2" d="M351.343,18.343 A8,8 0 0 1 357,16 h114 a8,8 0 0 1 8,8 v32 a8,8 0 0 1 -8,8 h-114 a8,8 0 0 1 -8,-8 v-32 A8,8 0 0 1 351.343,18.343"/><mask id="satori_om-id-1-0"><rect x="374" y="27" width="26" height="26" fill="#fff"/></mask><path x="374" y="27" width="26" height="26" fill="#e6edf322" d="M380,27 h14 a6,6 0 0 1 6,6 v14 a6,6 0 0 1 -6,6 h-14 a6,6 0 0 1 -6,-6 v-14 a6,6 0 0 1 6,-6"/><g  ><path fill="#e6edf3" d="M382.9 44.1L382.9 44.1Q381.9 44.1 381.1 43.6Q380.3 43.2 379.9 42.4Q379.5 41.5 379.5 40.4L379.5 40.4Q379.5 39.2 379.9 38.4Q380.4 37.5 381.1 37.1Q381.9 36.6 382.8 36.6L382.8 36.6Q383.5 36.6 384.0 36.8Q384.5 37.0 384.9 37.3Q385.3 37.6 385.6 38.1Q385.9 38.5 385.9 39.1L385.9 39.1L384.4 39.1Q384.4 38.8 384.2 38.6Q384.1 38.4 383.9 38.2Q383.7 38.1 383.4 38.0Q383.2 38.0 382.9 38.0L382.9 38.0Q382.3 38.0 381.9 38.2Q381.5 38.5 381.2 39.0Q381.0 39.6 381.0 40.4Q381.0 41.1 381.2 41.7Q381.4 42.2 381.9 42.5Q382.3 42.8 382.9 42.8L382.9 42.8Q383.4 42.8 383.8 42.6Q384.2 42.4 384.4 42.0L384.4 42.0Q384.6 41.7 384.6 41.3L384.6 41.3L383.0 41.3L383.0 40.1L386.0 40.1L386.0 41.0Q386.0 42.0 385.6 42.7Q385.2 43.4 384.5 43.7Q383.8 44.1 382.9 44.1ZM388.7 44L387.2 44L387.2 36.7L388.7 36.7L388.7 39.7L391.8 39.7L391.8 36.7L393.3 36.7L393.3 44L391.8 44L391.8 40.9L388.7 40.9L388.7 44Z "/></g><mask id="satori_om-id-1-1"><rect x="410" y="33" width="41" height="15" fill="#fff"/></mask><g  ><path fill="#e6edf3" d="M414.7 45.1L414.7 45.1Q413.4 45.1 412.5 44.6Q411.6 44.0 411.1 43.0Q410.6 42.0 410.6 40.6L410.6 40.6Q410.6 39.2 411.1 38.2Q411.6 37.2 412.5 36.7Q413.5 36.2 414.6 36.2L414.6 36.2Q415.4 36.2 416.0 36.4Q416.6 36.6 417.1 37.0Q417.6 37.4 417.9 37.9Q418.2 38.4 418.3 39.1L418.3 39.1L416.5 39.1Q416.4 38.8 416.3 38.5Q416.1 38.3 415.9 38.1Q415.6 37.9 415.3 37.8Q415.0 37.7 414.6 37.7L414.6 37.7Q414.0 37.7 413.5 38.1Q412.9 38.4 412.7 39.1Q412.4 39.7 412.4 40.6Q412.4 41.6 412.7 42.2Q412.9 42.8 413.5 43.2Q414.0 43.5 414.7 43.5L414.7 43.5Q415.3 43.5 415.8 43.3Q416.2 43.1 416.5 42.6L416.5 42.6Q416.7 42.2 416.7 41.7L416.7 41.7L414.8 41.7L414.8 40.3L418.4 40.3L418.4 41.4Q418.4 42.6 417.9 43.4Q417.5 44.2 416.6 44.7Q415.8 45.1 414.7 45.1ZM421.5 45L419.8 45L419.8 38.4L421.5 38.4L421.5 45ZM420.6 37.6L420.6 37.6Q420.2 37.6 420.0 37.3Q419.7 37.1 419.7 36.7L419.7 36.7Q419.7 36.3 420.0 36.1Q420.2 35.8 420.6 35.8L420.6 35.8Q421.0 35.8 421.3 36.0Q421.6 36.3 421.6 36.7L421.6 36.7Q421.6 37.1 421.3 37.3Q421.0 37.6 420.6 37.6ZM425.0 38.4L426.3 38.4L426.3 39.8L425.0 39.8L425.0 43.1Q425.0 43.4 425.2 43.5Q425.3 43.7 425.6 43.7L425.6 43.7Q425.7 43.7 425.9 43.7Q426.1 43.6 426.2 43.6L426.2 43.6L426.4 44.9Q426.1 45.0 425.9 45.1Q425.6 45.1 425.3 45.1L425.3 45.1Q424.3 45.1 423.8 44.6Q423.3 44.1 423.3 43.2L423.3 43.2L423.3 39.8L422.4 39.8L422.4 38.4L423.3 38.4L423.3 36.9L425.0 36.9L425.0 38.4ZM429.2 45L427.4 45L427.4 36.3L429.2 36.3L429.2 39.8L433.0 39.8L433.0 36.3L434.8 36.3L434.8 45L433.0 45L433.0 41.3L429.2 41.3L429.2 45ZM438.6 45.1L438.6 45.1Q437.9 45.1 437.4 44.8Q436.9 44.5 436.6 43.9Q436.4 43.4 436.4 42.6L436.4 42.6L436.4 38.4L438.1 38.4L438.1 42.3Q438.1 42.9 438.4 43.3Q438.8 43.6 439.3 43.6L439.3 43.6Q439.7 43.6 440.0 43.5Q440.3 43.3 440.4 43.0Q440.6 42.7 440.6 42.2L440.6 42.2L440.6 38.4L442.3 38.4L442.3 45L440.7 45L440.7 43.6Q440.4 44.3 440.0 44.6L440.0 44.6Q439.4 45.1 438.6 45.1ZM447.5 45.1L447.5 45.1Q447.0 45.1 446.6 44.9Q446.2 44.7 446.0 44.5Q445.8 44.2 445.6 44.0L445.6 44.0L445.6 44.0L445.6 45L443.8 45L443.8 36.3L445.6 36.3L445.6 39.6L445.6 39.6Q445.8 39.3 446.0 39.0Q446.2 38.7 446.6 38.6Q447.0 38.4 447.5 38.4L447.5 38.4Q448.2 38.4 448.8 38.7Q449.5 39.1 449.8 39.9Q450.2 40.6 450.2 41.7L450.2 41.7Q450.2 42.8 449.8 43.6Q449.5 44.3 448.9 44.7Q448.3 45.1 447.5 45.1ZM447.0 43.7L447.0 43.7Q447.4 43.7 447.7 43.4Q448.1 43.2 448.2 42.8Q448.4 42.3 448.4 41.7L448.4 41.7Q448.4 41.2 448.2 40.7Q448.1 40.3 447.7 40.0Q447.4 39.8 447.0 39.8L447.0 39.8Q446.5 39.8 446.2 40.0Q445.9 40.3 445.7 40.7Q445.6 41.1 445.6 41.7L445.6 41.7Q445.6 42.3 445.7 42.8Q445.9 43.2 446.2 43.5Q446.5 43.7 447.0 43.7Z "/></g><defs><clipPath id="satori_bc-id-2"><path x="495" y="16" width="130" height="48" d="M503,16 h114 a8,8 0 0 1 8,8 v32 a8,8 0 0 1 -8,8 h-114 a8,8 0 0 1 -8,-8 v-32 a8,8 0 0 1 8,-8"/></clipPath></defs><mask id="satori_om-id-2"><rect x="496" y="17" width="128" height="46" fill="#fff"/><path width="130" height="48" fill="none" stroke="#000" stroke-width="2" d="M497.343,18.343 A8,8 0 0 1 503,16 h114 a8,8 0 0 1 8,8 v32 a8,8 0 0 1 -8,8 h-114 a8,8 0 0 1 -8,-8 v-32 A8,8 0 0 1 497.343,18.343"/></mask><path x="495" y="16" width="130" height="48" fill="#0a0a0f" d="M503,16 h114 a8,8 0 0 1 8,8 v32 a8,8 0 0 1 -8,8 h-114 a8,8 0 0 1 -8,-8 v-32 a8,8 0 0 1 8,-8"/><path width="130" height="48" clip-path="url(#satori_bc-id-2)" fill="none" stroke="#FF6B3544" stroke-width="2" d="M497.343,18.343 A8,8 0 0 1 503,16 h114 a8,8 0 0 1 8,8 v32 a8,8 0 0 1 -8,8 h-114 a8,8 0 0 1 -8,-8 v-32 A8,8 0 0 1 497.343,18.343"/><mask id="satori_om-id-2-0"><rect x="520" y="27" width="26" height="26" fill="#fff"/></mask><path x="520" y="27" width="26" height="26" fill="#FF6B3522" d="M526,27 h14 a6,6 0 0 1 6,6 v14 a6,6 0 0 1 -6,6 h-14 a6,6 0 0 1 -6,-6 v-14 a6,6 0 0 1 6,-6"/><g  ><path fill="#FF6B35" d="M529.8 44.1L529.8 44.1Q528.9 44.1 528.1 43.7Q527.3 43.2 526.9 42.4Q526.5 41.5 526.5 40.4L526.5 40.4Q526.5 39.2 526.9 38.3Q527.3 37.5 528.1 37.1Q528.9 36.6 529.8 36.6L529.8 36.6Q530.5 36.6 531.0 36.8Q531.5 37.0 531.9 37.3Q532.4 37.6 532.6 38.1Q532.9 38.6 533.0 39.2L533.0 39.2L531.5 39.2Q531.4 38.9 531.3 38.7Q531.1 38.4 530.9 38.3Q530.7 38.1 530.4 38.0Q530.2 38.0 529.9 38.0L529.9 38.0Q529.3 38.0 528.9 38.2Q528.4 38.5 528.2 39.1Q528.0 39.6 528.0 40.4L528.0 40.4Q528.0 41.2 528.2 41.7Q528.5 42.2 528.9 42.5Q529.3 42.8 529.9 42.8L529.9 42.8Q530.2 42.8 530.4 42.7Q530.7 42.6 530.9 42.4Q531.1 42.3 531.3 42.0Q531.4 41.8 531.5 41.5L531.5 41.5L533.0 41.5Q532.9 42.0 532.7 42.5Q532.4 42.9 532.0 43.3Q531.6 43.7 531.1 43.9Q530.5 44.1 529.8 44.1ZM535.5 44L534.1 44L534.1 36.7L536.9 36.7Q537.7 36.7 538.3 37.0Q538.9 37.3 539.2 37.8Q539.5 38.4 539.5 39.1Q539.5 39.8 539.2 40.3Q538.9 40.9 538.3 41.1L538.3 41.1Q538.2 41.1 538.2 41.2L538.2 41.2L539.8 44L538.1 44L536.7 41.4L535.5 41.4L535.5 44ZM535.5 38.0L535.5 40.2L536.6 40.2Q537.1 40.2 537.4 40.1Q537.7 39.9 537.8 39.7Q538.0 39.5 538.0 39.1L538.0 39.1Q538.0 38.7 537.8 38.5Q537.7 38.2 537.4 38.1Q537.1 38.0 536.6 38.0L536.6 38.0L535.5 38.0Z "/></g><mask id="satori_om-id-2-1"><rect x="556" y="33" width="39" height="15" fill="#fff"/></mask><g  ><path fill="#FF6B35" d="M560.6 45.1L560.6 45.1Q559.4 45.1 558.5 44.6Q557.6 44.1 557.1 43.1Q556.6 42.1 556.6 40.6L556.6 40.6Q556.6 39.2 557.1 38.2Q557.6 37.2 558.5 36.7Q559.5 36.2 560.6 36.2L560.6 36.2Q561.3 36.2 562.0 36.4Q562.6 36.6 563.1 37.0Q563.6 37.4 563.9 37.9Q564.3 38.5 564.4 39.3L564.4 39.3L562.6 39.3Q562.5 38.9 562.3 38.6Q562.2 38.3 561.9 38.1Q561.7 37.9 561.3 37.8Q561.0 37.7 560.6 37.7L560.6 37.7Q560.0 37.7 559.4 38.1Q558.9 38.4 558.7 39.1Q558.4 39.7 558.4 40.6L558.4 40.6Q558.4 41.6 558.7 42.2Q558.9 42.9 559.5 43.2Q560.0 43.5 560.6 43.5L560.6 43.5Q561.0 43.5 561.3 43.4Q561.6 43.3 561.9 43.1Q562.2 42.9 562.3 42.7Q562.5 42.4 562.6 42.0L562.6 42.0L564.4 42.0Q564.3 42.6 564.0 43.2Q563.7 43.7 563.2 44.2Q562.8 44.6 562.1 44.9Q561.4 45.1 560.6 45.1ZM567.4 45L565.6 45L565.6 38.4L567.3 38.4L567.3 39.6L567.4 39.6Q567.6 39.0 568.0 38.7Q568.4 38.4 569.0 38.4L569.0 38.4Q569.1 38.4 569.3 38.4Q569.4 38.4 569.5 38.4L569.5 38.4L569.5 40.0Q569.4 39.9 569.2 39.9Q569.0 39.9 568.8 39.9L568.8 39.9Q568.4 39.9 568.1 40.1Q567.7 40.2 567.6 40.6Q567.4 40.9 567.4 41.3L567.4 41.3L567.4 45ZM573.5 45.1L573.5 45.1Q572.5 45.1 571.7 44.7Q571.0 44.3 570.6 43.6Q570.2 42.8 570.2 41.8L570.2 41.8Q570.2 40.7 570.6 40.0Q571.0 39.2 571.7 38.8Q572.4 38.4 573.4 38.4L573.4 38.4Q574.0 38.4 574.6 38.6Q575.1 38.8 575.6 39.2Q576.0 39.6 576.2 40.2Q576.5 40.8 576.5 41.7L576.5 41.7L576.5 42.2L572.0 42.2Q572.0 42.7 572.2 43.0L572.2 43.0Q572.4 43.4 572.7 43.6Q573.0 43.8 573.5 43.8L573.5 43.8Q573.8 43.8 574.1 43.7Q574.3 43.6 574.5 43.5Q574.7 43.3 574.8 43.0L574.8 43.0L576.4 43.3Q576.2 43.9 575.8 44.3Q575.4 44.7 574.8 44.9Q574.2 45.1 573.5 45.1ZM572.0 41.1L572.0 41.1L574.8 41.1Q574.7 40.8 574.6 40.5L574.6 40.5Q574.5 40.1 574.2 39.9Q573.9 39.7 573.4 39.7L573.4 39.7Q572.9 39.7 572.6 39.9Q572.3 40.1 572.1 40.5L572.1 40.5Q572.0 40.7 572.0 41.1ZM580.1 45.1L580.1 45.1Q579.3 45.1 578.7 44.7Q578.1 44.3 577.7 43.6Q577.4 42.8 577.4 41.7L577.4 41.7Q577.4 40.6 577.8 39.9Q578.1 39.1 578.7 38.7Q579.3 38.4 580.0 38.4L580.0 38.4Q580.6 38.4 581.0 38.6Q581.3 38.7 581.6 39.0Q581.8 39.3 581.9 39.6L581.9 39.6L582.0 39.6L582.0 36.3L583.7 36.3L583.7 45L582.0 45L582.0 44.0L581.9 44.0Q581.8 44.2 581.6 44.5Q581.3 44.7 581.0 44.9Q580.6 45.1 580.1 45.1ZM580.6 43.7L580.6 43.7Q581.0 43.7 581.4 43.5Q581.7 43.2 581.8 42.8Q582.0 42.3 582.0 41.7L582.0 41.7Q582.0 41.1 581.8 40.7Q581.7 40.3 581.4 40.0Q581.0 39.8 580.6 39.8L580.6 39.8Q580.1 39.8 579.8 40.0Q579.5 40.3 579.3 40.7Q579.2 41.2 579.2 41.7L579.2 41.7Q579.2 42.3 579.4 42.8Q579.5 43.2 579.8 43.4Q580.1 43.7 580.6 43.7ZM585.2 36.3L587.0 36.3L587.0 45L585.2 45L585.2 36.3ZM588.4 47.3L588.4 47.3L588.8 46.0L589.1 46.0Q589.4 46.1 589.7 46.1Q590.0 46.1 590.1 45.9Q590.3 45.7 590.3 45.4L590.3 45.4L590.4 45.0L587.9 38.4L589.8 38.4L590.9 41.8Q591.1 42.5 591.2 43.1L591.2 43.1Q591.3 43.4 591.3 43.6L591.3 43.6Q591.3 43.4 591.4 43.1L591.4 43.1Q591.6 42.5 591.8 41.8L591.8 41.8L592.9 38.4L594.8 38.4L592.0 45.8Q591.8 46.3 591.5 46.7Q591.2 47.1 590.7 47.3Q590.2 47.5 589.6 47.5L589.6 47.5Q589.2 47.5 588.9 47.4Q588.6 47.4 588.4 47.3Z "/></g></svg>