<!-- Generated by readme-aura https://github.com/collectioneur/readme-aura -->
<svg width="820" height="200" viewBox="0 0 820 200" xmlns="http://www.w3.org/2000/svg"><defs><pattern id="satori_pattern_id_0" x="0" y="0" width="1" height="1" patternUnits="objectBoundingBox"><linearGradient id="satori_biid_0" x1="-0.08702975856260518" y1="0.35682201010668196" x2="1.0870297585626052" y2="0.6431779898933181" spreadMethod="pad"><stop offset="0%" stop-color="#0a0a0f"/><stop offset="60%" stop-color="#0d1117"/><stop offset="100%" stop-color="#0a0a0f"/></linearGradient><rect x="0" y="0" width="820" height="200" fill="url(#satori_biid_0)"/></pattern></defs><mask id="satori_om-id"><rect x="0" y="0" width="820" height="200" fill="#fff"/></mask><rect x="0" y="0" width="820" height="200" fill="url(#satori_pattern_id_0)"/><mask id="satori_om-id-0"><rect x="335" y="48" width="151" height="11" fill="#fff"/></mask><mask id="satori_om-id-0-0"><rect x="335" y="51" width="5" height="5" fill="#fff"/></mask><path x="335" y="51" width="5" height="5" fill="#00d4ff" d="M337.5,51 h0 a2.5,2.5 0 0 1 2.5,2.5 v0 a2.5,2.5 0 0 1 -2.5,2.5 h0 a2.5,2.5 0 0 1 -2.5,-2.5 v0 a2.5,2.5 0 0 1 2.5,-2.5"/><mask id="satori_om-id-0-1"><rect x="348" y="48" width="125" height="11" fill="#fff"/></mask><g  ><path fill="#00d4ff66" d="M350.9 57.1L350.9 57.1Q350.2 57.1 349.7 56.9Q349.1 56.7 348.8 56.2Q348.5 55.8 348.5 55.3L348.5 55.3L349.4 55.3Q349.4 55.7 349.6 55.9Q349.8 56.1 350.2 56.3Q350.5 56.4 350.9 56.4L350.9 56.4Q351.3 56.4 351.7 56.2Q352.0 56.1 352.2 55.8Q352.5 55.5 352.5 55.2L352.5 55.2Q352.5 54.9 352.3 54.7Q352.1 54.5 351.8 54.4Q351.5 54.2 351.2 54.1L351.2 54.1L350.4 53.9Q349.6 53.7 349.1 53.3Q348.7 52.9 348.7 52.2L348.7 52.2Q348.7 51.7 349.0 51.2Q349.3 50.8 349.8 50.6Q350.3 50.4 350.9 50.4L350.9 50.4Q351.6 50.4 352.1 50.6Q352.6 50.8 352.9 51.2Q353.2 51.6 353.2 52.1L353.2 52.1L352.4 52.1Q352.3 51.6 351.9 51.4Q351.5 51.1 350.9 51.1L350.9 51.1Q350.5 51.1 350.2 51.2Q349.9 51.4 349.7 51.6Q349.5 51.9 349.5 52.2L349.5 52.2Q349.5 52.5 349.7 52.7Q349.9 52.9 350.2 53.0Q350.5 53.2 350.8 53.2L350.8 53.2L351.4 53.4Q351.7 53.5 352.0 53.6Q352.3 53.7 352.6 53.9Q352.9 54.1 353.1 54.4Q353.3 54.8 353.3 55.2L353.3 55.2Q353.3 55.8 353.0 56.2Q352.7 56.6 352.2 56.9Q351.6 57.1 350.9 57.1ZM361.2 57L360.4 57L360.4 54.3L358.0 50.5L359.0 50.5L360.3 52.6Q360.5 52.9 360.7 53.2L360.7 53.2Q360.7 53.4 360.8 53.6L360.8 53.6Q360.9 53.4 361.0 53.2L361.0 53.2Q361.2 52.9 361.4 52.6L361.4 52.6L362.7 50.5L363.7 50.5L361.2 54.3L361.2 57ZM370.8 57.1L370.8 57.1Q370.1 57.1 369.5 56.9Q369.0 56.7 368.7 56.2Q368.4 55.8 368.4 55.3L368.4 55.3L369.2 55.3Q369.3 55.7 369.5 55.9Q369.7 56.1 370.1 56.3Q370.4 56.4 370.8 56.4L370.8 56.4Q371.2 56.4 371.6 56.2Q371.9 56.1 372.1 55.8Q372.3 55.5 372.3 55.2L372.3 55.2Q372.3 54.9 372.2 54.7Q372.0 54.5 371.7 54.4Q371.4 54.2 371.0 54.1L371.0 54.1L370.2 53.9Q369.5 53.7 369.0 53.3Q368.6 52.9 368.6 52.2L368.6 52.2Q368.6 51.7 368.9 51.2Q369.2 50.8 369.7 50.6Q370.2 50.4 370.8 50.4L370.8 50.4Q371.5 50.4 372.0 50.6Q372.5 50.8 372.8 51.2Q373.0 51.6 373.1 52.1L373.1 52.1L372.2 52.1Q372.2 51.6 371.8 51.4Q371.4 51.1 370.8 51.1L370.8 51.1Q370.4 51.1 370.1 51.2Q369.7 51.4 369.6 51.6Q369.4 51.9 369.4 52.2L369.4 52.2Q369.4 52.5 369.6 52.7Q369.8 52.9 370.1 53.0Q370.4 53.2 370.6 53.2L370.6 53.2L371.3 53.4Q371.6 53.5 371.9 53.6Q372.2 53.7 372.5 53.9Q372.8 54.1 373.0 54.4Q373.1 54.8 373.1 55.2L373.1 55.2Q373.1 55.8 372.9 56.2Q372.6 56.6 372.1 56.9Q371.5 57.1 370.8 57.1ZM380.1 51.2L378.1 51.2L378.1 50.5L383.0 50.5L383.0 51.2L381.0 51.2L381.0 57L380.1 57L380.1 51.2ZM392.3 57L388.3 57L388.3 50.5L392.2 50.5L392.2 51.2L389.1 51.2L389.1 53.3L392.0 53.3L392.0 54.1L389.1 54.1L389.1 56.3L392.3 56.3L392.3 57ZM398.5 57L397.7 57L397.7 50.5L398.9 50.5L400.5 54.6Q400.5 54.7 400.6 54.9Q400.7 55.2 400.8 55.4Q400.8 55.7 400.9 55.9L400.9 55.9Q400.9 56.0 401.0 56.1L401.0 56.1Q401.0 56.0 401.0 55.9L401.0 55.9Q401.1 55.7 401.1 55.4Q401.2 55.2 401.3 55.0Q401.4 54.7 401.4 54.6L401.4 54.6L403.0 50.5L404.2 50.5L404.2 57L403.4 57L403.4 53.3Q403.4 53.1 403.4 52.8Q403.4 52.5 403.4 52.3Q403.4 52.0 403.4 51.7L403.4 51.7Q403.4 51.5 403.4 51.3L403.4 51.3Q403.4 51.5 403.3 51.7L403.3 51.7Q403.2 52.0 403.1 52.3Q403.0 52.6 402.9 52.9Q402.8 53.1 402.8 53.3L402.8 53.3L401.3 57L400.6 57L399.1 53.3Q399.0 53.1 398.9 52.9Q398.9 52.6 398.8 52.3Q398.7 52.1 398.6 51.7L398.6 51.7Q398.5 51.6 398.4 51.4L398.4 51.4Q398.4 51.5 398.4 51.6L398.4 51.6Q398.4 51.9 398.4 52.2Q398.5 52.5 398.5 52.8Q398.5 53.0 398.5 53.3L398.5 53.3L398.5 57Z M419.0 57.1L419.0 57.1Q418.1 57.1 417.5 56.7Q416.8 56.3 416.5 55.5Q416.1 54.8 416.1 53.7L416.1 53.7Q416.1 52.7 416.5 51.9Q416.8 51.2 417.5 50.8Q418.1 50.4 419.0 50.4L419.0 50.4Q419.8 50.4 420.5 50.8Q421.1 51.2 421.5 51.9Q421.9 52.7 421.9 53.7L421.9 53.7Q421.9 54.8 421.5 55.5Q421.1 56.3 420.5 56.7Q419.8 57.1 419.0 57.1ZM419.0 56.3L419.0 56.3Q419.6 56.3 420.0 56.0Q420.5 55.7 420.8 55.1Q421.1 54.6 421.1 53.7L421.1 53.7Q421.1 52.9 420.8 52.3Q420.5 51.7 420.0 51.4Q419.6 51.1 419.0 51.1L419.0 51.1Q418.4 51.1 417.9 51.4Q417.4 51.7 417.2 52.3Q416.9 52.9 416.9 53.7L416.9 53.7Q416.9 54.6 417.2 55.1Q417.4 55.7 417.9 56.0Q418.4 56.3 419.0 56.3ZM428.0 57L427.2 57L427.2 50.5L428.2 50.5L430.9 54.6Q431.0 54.8 431.1 55.1Q431.3 55.3 431.4 55.6L431.4 55.6Q431.5 55.8 431.6 56.0L431.6 56.0Q431.6 55.8 431.6 55.6L431.6 55.6Q431.6 55.3 431.6 55.0Q431.6 54.7 431.6 54.5L431.6 54.5L431.6 50.5L432.4 50.5L432.4 57L431.4 57L429.0 53.3Q428.9 53.0 428.7 52.7Q428.6 52.5 428.3 52.1L428.3 52.1Q428.2 51.8 428.0 51.5L428.0 51.5Q428.0 51.8 428.0 52.1L428.0 52.1Q428.0 52.5 428.0 52.8Q428.0 53.1 428.0 53.3L428.0 53.3L428.0 57ZM441.9 57L438.0 57L438.0 50.5L438.8 50.5L438.8 56.3L441.9 56.3L441.9 57ZM447.1 50.5L447.9 50.5L447.9 57L447.1 57L447.1 50.5ZM454.3 57L453.5 57L453.5 50.5L454.5 50.5L457.1 54.6Q457.3 54.8 457.4 55.1Q457.5 55.3 457.7 55.6L457.7 55.6Q457.8 55.8 457.9 56.0L457.9 56.0Q457.9 55.8 457.9 55.6L457.9 55.6Q457.9 55.3 457.9 55.0Q457.9 54.7 457.9 54.5L457.9 54.5L457.9 50.5L458.7 50.5L458.7 57L457.7 57L455.3 53.3Q455.2 53.0 455.0 52.7Q454.8 52.5 454.6 52.1L454.6 52.1Q454.5 51.8 454.3 51.5L454.3 51.5Q454.3 51.8 454.3 52.1L454.3 52.1Q454.3 52.5 454.3 52.8Q454.3 53.1 454.3 53.3L454.3 53.3L454.3 57ZM468.3 57L464.3 57L464.3 50.5L468.3 50.5L468.3 51.2L465.1 51.2L465.1 53.3L468.1 53.3L468.1 54.1L465.1 54.1L465.1 56.3L468.3 56.3L468.3 57Z "/></g><mask id="satori_om-id-0-2"><rect x="481" y="51" width="5" height="5" fill="#fff"/></mask><path x="481" y="51" width="5" height="5" fill="#00d4ff" d="M483.5,51 h0 a2.5,2.5 0 0 1 2.5,2.5 v0 a2.5,2.5 0 0 1 -2.5,2.5 h0 a2.5,2.5 0 0 1 -2.5,-2.5 v0 a2.5,2.5 0 0 1 2.5,-2.5"/><clipPath id="satori_bct-id-1"><path d="M209.4 116L187.9 116L187.9 84.0L209.3 84.0L209.3 89.4L194.5 89.4L194.5 97.2L208.2 97.2L208.2 102.5L194.5 102.5L194.5 110.6L209.4 110.6L209.4 116ZM219.0 116L211.8 116L222.7 84.0L231.3 84.0L242.5 116L235.2 116L232.8 108.6L221.4 108.6L219.0 116ZM223.0 103.4L231.1 103.4L230.1 100.6Q229.2 97.6 228.2 94L228.2 94Q227.6 91.7 226.9 89.1L226.9 89.1Q226.3 91.7 225.7 94.0L225.7 94.0Q224.8 97.6 224.0 100.6L224.0 100.6L223.0 103.4ZM257.2 116.5L257.2 116.5Q253.4 116.5 250.5 115.3Q247.7 114.1 246.1 111.8Q244.5 109.5 244.4 106.1L244.4 106.1L250.8 106.1Q250.9 107.7 251.8 108.8Q252.6 109.9 254.0 110.4Q255.4 110.9 257.1 110.9L257.1 110.9Q258.9 110.9 260.2 110.4Q261.5 109.9 262.2 109.0Q263.0 108.1 263.0 106.8L263.0 106.8Q263.0 105.8 262.3 105.0Q261.7 104.3 260.4 103.7Q259.2 103.2 257.4 102.8L257.4 102.8L253.9 101.9Q249.9 100.9 247.6 98.8Q245.3 96.7 245.3 93.2L245.3 93.2Q245.3 90.3 246.8 88.1Q248.4 86.0 251.1 84.8Q253.8 83.6 257.3 83.6L257.3 83.6Q260.8 83.6 263.5 84.8Q266.1 86.0 267.6 88.1Q269.1 90.3 269.1 93.1L269.1 93.1L262.8 93.1Q262.6 91.2 261.1 90.1Q259.7 89.1 257.2 89.1L257.2 89.1Q255.6 89.1 254.4 89.6Q253.2 90.0 252.6 90.9Q252.0 91.7 252.0 92.8L252.0 92.8Q252.0 94.0 252.7 94.7Q253.4 95.5 254.6 96.0Q255.8 96.5 257.1 96.8L257.1 96.8L260 97.5Q262.0 98.0 263.8 98.7Q265.5 99.5 266.8 100.6Q268.1 101.8 268.8 103.3Q269.6 104.9 269.6 106.9L269.6 106.9Q269.6 109.8 268.1 112.0Q266.6 114.1 263.9 115.3Q261.1 116.5 257.2 116.5ZM287.5 116L280.0 116L271.4 84.0L278.6 84.0L282.3 99.7Q282.8 101.7 283.1 104.0Q283.5 106.2 283.9 108.5L283.9 108.5Q284.0 109.0 284.0 109.4L284.0 109.4Q284.1 109.0 284.2 108.5L284.2 108.5Q284.6 106.2 285.0 104.0Q285.4 101.7 285.9 99.7L285.9 99.7L289.8 84.0L296.6 84.0L300.5 99.7Q301.0 101.7 301.4 104.0Q301.8 106.2 302.2 108.5L302.2 108.5Q302.3 108.9 302.4 109.4L302.4 109.4Q302.4 108.9 302.5 108.5L302.5 108.5Q302.9 106.2 303.3 104.0Q303.7 101.7 304.1 99.7L304.1 99.7L307.8 84.0L315.0 84.0L306.4 116L298.9 116L294.6 99.6Q294.0 96.9 293.5 93.7L293.5 93.7Q293.3 92.8 293.2 91.9L293.2 91.9Q293.1 92.7 292.9 93.6L292.9 93.6Q292.5 96.7 291.8 99.6L291.8 99.6L287.5 116ZM323.3 116L316.1 116L327.0 84.0L335.6 84.0L346.8 116L339.6 116L337.1 108.6L325.7 108.6L323.3 116ZM327.4 103.4L335.4 103.4L334.4 100.6Q333.5 97.6 332.6 94L332.6 94Q331.9 91.7 331.3 89.1L331.3 89.1Q330.6 91.7 330.1 94.0L330.1 94.0Q329.2 97.6 328.3 100.6L328.3 100.6L327.4 103.4ZM356.3 116L349.8 116L349.8 84.0L362.3 84.0Q365.9 84.0 368.5 85.3Q371.0 86.6 372.4 88.9Q373.7 91.3 373.7 94.4Q373.7 97.6 372.4 99.9Q371.0 102.1 368.4 103.3L368.4 103.3Q368.2 103.4 368.1 103.5L368.1 103.5L374.9 116L367.6 116L361.5 104.6L356.3 104.6L356.3 116ZM356.3 89.4L356.3 99.3L361.1 99.3Q363.1 99.3 364.4 98.7Q365.7 98.2 366.3 97.1Q367.0 96.0 367.0 94.4L367.0 94.4Q367.0 92.8 366.3 91.7Q365.7 90.6 364.4 90.0Q363.1 89.4 361.0 89.4L361.0 89.4L356.3 89.4ZM383.1 116L375.8 116L386.8 84.0L395.4 84.0L406.6 116L399.3 116L396.8 108.6L385.5 108.6L383.1 116ZM387.1 103.4L395.1 103.4L394.2 100.6Q393.2 97.6 392.3 94L392.3 94Q391.7 91.7 391.0 89.1L391.0 89.1Q390.4 91.7 389.8 94.0L389.8 94.0Q388.9 97.6 388.0 100.6L388.0 100.6L387.1 103.4ZM416.0 116L409.5 116L409.5 84.0L419.6 84.0L424.8 98.7Q425.1 99.7 425.5 101.3Q426.0 103.0 426.4 104.9L426.4 104.9Q426.8 106.7 427.2 108.5L427.2 108.5Q427.5 106.7 427.9 104.9L427.9 104.9Q428.4 103.0 428.8 101.4Q429.2 99.7 429.5 98.7L429.5 98.7L434.7 84.0L444.8 84.0L444.8 116L438.2 116L438.2 100.9Q438.2 99.9 438.2 98.3Q438.2 96.7 438.3 94.9Q438.3 93.1 438.4 91.3L438.4 91.3Q438.4 90.4 438.4 89.6L438.4 89.6Q438.2 90.5 437.9 91.5L437.9 91.5Q437.4 93.4 436.9 95.2Q436.4 96.9 436.0 98.4Q435.5 99.9 435.2 100.9L435.2 100.9L429.9 116L424.4 116L419.0 100.9Q418.7 99.9 418.2 98.5Q417.8 97.0 417.3 95.2Q416.8 93.4 416.2 91.5L416.2 91.5Q416.0 90.7 415.8 89.9L415.8 89.9Q415.8 90.5 415.8 91.2L415.8 91.2Q415.9 93.0 415.9 94.8Q416.0 96.7 416.0 98.2Q416.0 99.8 416.0 100.9L416.0 100.9L416.0 116ZM462.7 116.5L462.7 116.5Q458.8 116.5 455.8 115.0Q452.8 113.5 451.2 110.9Q449.5 108.3 449.5 104.8L449.5 104.8L449.5 84.0L456.1 84.0L456.1 104.2Q456.1 106.1 456.9 107.5Q457.7 109.0 459.2 109.8Q460.7 110.7 462.7 110.7L462.7 110.7Q464.7 110.7 466.2 109.8Q467.7 109.0 468.6 107.5Q469.4 106.1 469.4 104.2L469.4 104.2L469.4 84.0L476.0 84.0L476.0 104.8Q476.0 108.3 474.3 110.9Q472.6 113.5 469.7 115.0Q466.7 116.5 462.7 116.5ZM487.3 116L480.7 116L480.7 84.0L493.2 84.0Q496.9 84.0 499.4 85.3Q502.0 86.6 503.3 88.9Q504.7 91.3 504.7 94.4Q504.7 97.6 503.3 99.9Q501.9 102.1 499.4 103.3L499.4 103.3Q499.2 103.4 499.0 103.5L499.0 103.5L505.8 116L498.5 116L492.4 104.6L487.3 104.6L487.3 116ZM487.3 89.4L487.3 99.3L492.0 99.3Q494.0 99.3 495.3 98.7Q496.6 98.2 497.3 97.1Q497.9 96.0 497.9 94.4L497.9 94.4Q497.9 92.8 497.3 91.7Q496.6 90.6 495.3 90.0Q494.0 89.4 492.0 89.4L492.0 89.4L487.3 89.4ZM517.1 89.4L507.3 89.4L507.3 84.0L533.5 84.0L533.5 89.4L523.7 89.4L523.7 116L517.1 116L517.1 89.4ZM543.6 116L537 116L537 84.0L543.6 84.0L543.6 96.9L557.5 96.9L557.5 84.0L564.1 84.0L564.1 116L557.5 116L557.5 102.4L543.6 102.4L543.6 116ZM585.4 116L578.9 116L578.9 104.0L567.0 84.0L574.7 84.0L580.1 94.0Q580.9 95.5 581.6 96.9L581.6 96.9Q581.9 97.6 582.2 98.4L582.2 98.4Q582.5 97.6 582.8 96.9L582.8 96.9Q583.4 95.4 584.2 94.0L584.2 94.0L589.4 84.0L597.1 84.0L585.4 104.0L585.4 116Z M616.0 116L609.5 116L609.5 84.0L621.9 84.0Q625.6 84.0 628.1 85.4Q630.7 86.8 632.0 89.2Q633.4 91.6 633.4 94.8L633.4 94.8Q633.4 98.0 632.0 100.4Q630.7 102.8 628.1 104.2Q625.5 105.5 621.8 105.5L621.8 105.5L616.0 105.5L616.0 116ZM616.0 89.4L616.0 100.3L620.7 100.3Q622.8 100.3 624.1 99.6Q625.4 98.9 626.0 97.6Q626.6 96.4 626.6 94.8Q626.6 93.2 626.0 92.0Q625.4 90.8 624.0 90.1Q622.7 89.4 620.7 89.4L620.7 89.4L616.0 89.4Z "/></clipPath><defs><pattern id="satori_pattern_id-1_0" x="0" y="0" width="1" height="1" patternUnits="objectBoundingBox"><linearGradient id="satori_biid-1_0" x1="0" y1="0" x2="1" y2="0" spreadMethod="pad"><stop offset="0%" stop-color="#ffffff"/><stop offset="55.00000000000001%" stop-color="#00d4ff"/><stop offset="100%" stop-color="#7c3aed"/></linearGradient><rect x="0" y="0" width="450" height="53" fill="url(#satori_biid-1_0)"/></pattern></defs><mask id="satori_om-id-1"><rect x="185" y="73" width="450" height="53" fill="#fff"/></mask><rect x="185" y="73" width="450" height="53" fill="url(#satori_pattern_id-1_0)" clip-path="url(#satori_bct-id-1)"/><mask id="satori_om-id-2"><rect x="176" y="138" width="469" height="15" fill="#fff"/></mask><mask id="satori_om-id-2-0"><rect x="176" y="138" width="144" height="15" fill="#fff"/></mask><g  ><path fill="#8892a4" d="M178.2 150L177.1 150L177.1 141.3L182.3 141.3L182.3 142.3L178.2 142.3L178.2 145.2L181.9 145.2L181.9 146.2L178.2 146.2L178.2 150ZM190.6 150.1L190.6 150.1Q189.5 150.1 188.8 149.7Q188.0 149.3 187.6 148.6Q187.1 147.9 187.1 147.0L187.1 147.0L187.1 141.3L188.3 141.3L188.3 146.9Q188.3 147.6 188.5 148.1Q188.8 148.5 189.3 148.8Q189.8 149.1 190.6 149.1L190.6 149.1Q191.3 149.1 191.8 148.8Q192.3 148.5 192.6 148.1Q192.8 147.6 192.8 146.9L192.8 146.9L192.8 141.3L194.0 141.3L194.0 147.0Q194.0 147.9 193.5 148.6Q193.1 149.3 192.4 149.7Q191.6 150.1 190.6 150.1ZM204.2 150L199.1 150L199.1 141.3L200.2 141.3L200.2 149.0L204.2 149.0L204.2 150ZM214.0 150L208.9 150L208.9 141.3L210.0 141.3L210.0 149.0L214.0 149.0L214.0 150Z M227.8 150.2L227.8 150.2Q226.9 150.2 226.2 149.8Q225.5 149.5 225.1 149.0Q224.7 148.4 224.6 147.7L224.6 147.7L225.8 147.7Q225.8 148.2 226.1 148.5Q226.4 148.8 226.9 149.0Q227.3 149.2 227.8 149.2L227.8 149.2Q228.4 149.2 228.9 149.0Q229.3 148.8 229.6 148.4Q229.9 148.1 229.9 147.6L229.9 147.6Q229.9 147.2 229.7 146.9Q229.4 146.7 229.0 146.5Q228.6 146.3 228.2 146.2L228.2 146.2L227.1 145.9Q226.1 145.6 225.5 145.0Q224.9 144.5 224.9 143.6L224.9 143.6Q224.9 142.9 225.3 142.3Q225.7 141.8 226.4 141.5Q227.0 141.2 227.9 141.2L227.9 141.2Q228.7 141.2 229.4 141.5Q230.1 141.8 230.5 142.3Q230.8 142.8 230.9 143.5L230.9 143.5L229.8 143.5Q229.7 142.8 229.2 142.5Q228.6 142.1 227.8 142.1L227.8 142.1Q227.3 142.1 226.9 142.3Q226.4 142.5 226.2 142.8Q226.0 143.1 226.0 143.6L226.0 143.6Q226.0 144.0 226.3 144.3Q226.5 144.6 226.9 144.7Q227.3 144.9 227.6 145.0L227.6 145.0L228.5 145.2Q228.9 145.3 229.3 145.5Q229.7 145.6 230.1 145.9Q230.5 146.2 230.7 146.6Q231.0 147.0 231.0 147.6L231.0 147.6Q231.0 148.3 230.6 148.9Q230.2 149.5 229.5 149.8Q228.8 150.2 227.8 150.2ZM238.0 142.3L235.2 142.3L235.2 141.3L241.8 141.3L241.8 142.3L239.1 142.3L239.1 150L238.0 150L238.0 142.3ZM246.9 150L245.7 150L248.9 141.3L250.2 141.3L253.4 150L252.2 150L251.3 147.6L247.7 147.6L246.9 150ZM248.1 146.6L251.0 146.6L250.4 144.8Q250.2 144.3 250.0 143.6L250.0 143.6Q249.8 143.0 249.5 142.2L249.5 142.2Q249.3 143.0 249.1 143.6L249.1 143.6Q248.8 144.4 248.7 144.8L248.7 144.8L248.1 146.6ZM261.3 150.1L261.3 150.1Q260.2 150.1 259.3 149.6Q258.4 149.0 257.9 148.0Q257.4 147.0 257.4 145.6L257.4 145.6Q257.4 144.3 257.9 143.2Q258.4 142.2 259.3 141.7Q260.2 141.2 261.3 141.2L261.3 141.2Q261.9 141.2 262.5 141.3Q263.1 141.5 263.6 141.9Q264.0 142.3 264.4 142.8Q264.7 143.3 264.8 144.0L264.8 144.0L263.7 144.0Q263.6 143.6 263.4 143.2Q263.1 142.9 262.8 142.7Q262.5 142.4 262.1 142.3Q261.7 142.2 261.3 142.2L261.3 142.2Q260.5 142.2 259.9 142.6Q259.2 143.0 258.9 143.8Q258.5 144.5 258.5 145.6L258.5 145.6Q258.5 146.8 258.9 147.5Q259.2 148.3 259.9 148.7Q260.5 149.1 261.3 149.1L261.3 149.1Q261.7 149.1 262.1 149.0Q262.5 148.8 262.8 148.6Q263.1 148.4 263.4 148.0Q263.6 147.7 263.7 147.3L263.7 147.3L264.8 147.3Q264.7 147.9 264.4 148.4Q264.1 149.0 263.6 149.3Q263.1 149.7 262.5 149.9Q261.9 150.1 261.3 150.1ZM270.6 150L269.5 150L269.5 141.3L270.6 141.3L270.6 144.3L270.6 145.9Q270.7 145.7 270.9 145.5L270.9 145.5Q271.2 145.2 271.5 144.8Q271.8 144.4 272.1 144.1L272.1 144.1L274.7 141.3L276.2 141.3L272.6 145.0L276.2 150L274.9 150L271.9 145.8L270.6 147.1L270.6 150Z M289.7 150L289.7 150L286.9 150L286.9 141.3L289.8 141.3Q291.1 141.3 292.0 141.8Q292.9 142.3 293.3 143.3Q293.8 144.3 293.8 145.6L293.8 145.6Q293.8 147.0 293.3 148.0Q292.9 148.9 291.9 149.5Q291.0 150 289.7 150ZM288.1 142.3L288.1 149.0L289.6 149.0Q290.7 149.0 291.4 148.6Q292.1 148.2 292.4 147.4Q292.8 146.7 292.8 145.6L292.8 145.6Q292.8 144.6 292.4 143.8Q292.1 143.1 291.4 142.7Q290.7 142.3 289.7 142.3L289.7 142.3L288.1 142.3ZM304.0 150L298.6 150L298.6 141.3L303.9 141.3L303.9 142.3L299.7 142.3L299.7 145.1L303.6 145.1L303.6 146.1L299.7 146.1L299.7 149.0L304.0 149.0L304.0 150ZM312.6 150L311.3 150L308.1 141.3L309.2 141.3L311.1 146.4Q311.2 146.9 311.5 147.6L311.5 147.6Q311.7 148.2 311.9 149.1L311.9 149.1Q312.2 148.2 312.4 147.6L312.4 147.6Q312.6 146.9 312.8 146.4L312.8 146.4L314.6 141.3L315.7 141.3L312.6 150Z "/></g><mask id="satori_om-id-2-1"><rect x="334" y="144" width="4" height="4" fill="#fff"/></mask><path x="334" y="144" width="4" height="4" fill="#7c3aed" d="M336,144 h0 a2,2 0 0 1 2,2 v0 a2,2 0 0 1 -2,2 h0 a2,2 0 0 1 -2,-2 v0 a2,2 0 0 1 2,-2"/><mask id="satori_om-id-2-2"><rect x="352" y="138" width="114" height="15" fill="#fff"/></mask><g  ><path fill="#8892a4" d="M354.2 150L353.1 150L353.1 141.3L358.3 141.3L358.3 142.3L354.2 142.3L354.2 145.2L357.9 145.2L357.9 146.2L354.2 146.2L354.2 150ZM368.3 150L363.1 150L363.1 141.3L364.3 141.3L364.3 149.0L368.3 149.0L368.3 150ZM376.3 150.1L376.3 150.1Q375.3 150.1 374.5 149.7Q373.8 149.3 373.3 148.6Q372.9 147.9 372.9 147.0L372.9 147.0L372.9 141.3L374.0 141.3L374.0 146.9Q374.0 147.6 374.3 148.1Q374.6 148.5 375.1 148.8Q375.6 149.1 376.3 149.1L376.3 149.1Q377.1 149.1 377.6 148.8Q378.1 148.5 378.4 148.1Q378.6 147.6 378.6 146.9L378.6 146.9L378.6 141.3L379.7 141.3L379.7 147.0Q379.7 147.9 379.3 148.6Q378.9 149.3 378.1 149.7Q377.4 150.1 376.3 150.1ZM387.1 142.3L384.4 142.3L384.4 141.3L391.0 141.3L391.0 142.3L388.2 142.3L388.2 150L387.1 150L387.1 142.3ZM397.9 142.3L395.1 142.3L395.1 141.3L401.7 141.3L401.7 142.3L399.0 142.3L399.0 150L397.9 150L397.9 142.3ZM411.7 150L406.3 150L406.3 141.3L411.7 141.3L411.7 142.3L407.5 142.3L407.5 145.1L411.4 145.1L411.4 146.1L407.5 146.1L407.5 149.0L411.7 149.0L411.7 150ZM417.7 150L416.6 150L416.6 141.3L419.5 141.3Q420.6 141.3 421.2 141.6Q421.9 142.0 422.2 142.6Q422.5 143.2 422.5 144.0Q422.5 144.7 422.2 145.3Q421.9 145.9 421.2 146.3L421.2 146.3Q421.1 146.4 420.9 146.4L420.9 146.4L422.9 150L421.6 150L419.8 146.6Q419.7 146.6 419.6 146.6L419.6 146.6L417.7 146.6L417.7 150ZM417.7 142.2L417.7 145.6L419.5 145.6Q420.2 145.6 420.6 145.4Q421.0 145.2 421.2 144.8Q421.4 144.5 421.4 144.0L421.4 144.0Q421.4 143.4 421.2 143.1Q421.0 142.7 420.6 142.5Q420.2 142.2 419.5 142.2L419.5 142.2L417.7 142.2Z M436.4 150L436.4 150L433.7 150L433.7 141.3L436.5 141.3Q437.8 141.3 438.7 141.8Q439.6 142.3 440.1 143.3Q440.5 144.3 440.5 145.6L440.5 145.6Q440.5 147.0 440.1 148.0Q439.6 148.9 438.6 149.5Q437.7 150 436.4 150ZM434.8 142.3L434.8 149.0L436.3 149.0Q437.4 149.0 438.1 148.6Q438.8 148.2 439.1 147.4Q439.5 146.7 439.5 145.6L439.5 145.6Q439.5 144.6 439.1 143.8Q438.8 143.1 438.1 142.7Q437.4 142.3 436.4 142.3L436.4 142.3L434.8 142.3ZM450.7 150L445.3 150L445.3 141.3L450.6 141.3L450.6 142.3L446.4 142.3L446.4 145.1L450.3 145.1L450.3 146.1L446.4 146.1L446.4 149.0L450.7 149.0L450.7 150ZM459.3 150L458.0 150L454.8 141.3L456.0 141.3L457.8 146.4Q458.0 146.9 458.2 147.6L458.2 147.6Q458.4 148.2 458.6 149.1L458.6 149.1Q458.9 148.2 459.1 147.6L459.1 147.6Q459.3 146.9 459.5 146.4L459.5 146.4L461.3 141.3L462.4 141.3L459.3 150Z "/></g><mask id="satori_om-id-2-3"><rect x="480" y="144" width="4" height="4" fill="#fff"/></mask><path x="480" y="144" width="4" height="4" fill="#7c3aed" d="M482,144 h0 a2,2 0 0 1 2,2 v0 a2,2 0 0 1 -2,2 h0 a2,2 0 0 1 -2,-2 v0 a2,2 0 0 1 2,-2"/><mask id="satori_om-id-2-4"><rect x="498" y="138" width="147" height="15" fill="#fff"/></mask><g  ><path fill="#8892a4" d="M501.8 150L501.8 150L499.1 150L499.1 141.3L501.9 141.3Q503.2 141.3 504.1 141.8Q505.0 142.3 505.5 143.3Q505.9 144.3 505.9 145.6L505.9 145.6Q505.9 147.0 505.5 148.0Q505.0 148.9 504.0 149.5Q503.1 150 501.8 150ZM500.2 142.3L500.2 149.0L501.7 149.0Q502.8 149.0 503.5 148.6Q504.2 148.2 504.5 147.4Q504.9 146.7 504.9 145.6L504.9 145.6Q504.9 144.6 504.5 143.8Q504.2 143.1 503.5 142.7Q502.8 142.3 501.8 142.3L501.8 142.3L500.2 142.3ZM511.1 150L510.0 150L513.1 141.3L514.4 141.3L517.6 150L516.5 150L515.6 147.6L512.0 147.6L511.1 150ZM512.3 146.6L515.2 146.6L514.6 144.8Q514.4 144.3 514.2 143.6L514.2 143.6Q514.0 143.0 513.8 142.2L513.8 142.2Q513.5 143.0 513.3 143.6L513.3 143.6Q513.1 144.4 512.9 144.8L512.9 144.8L512.3 146.6ZM524.3 142.3L521.5 142.3L521.5 141.3L528.1 141.3L528.1 142.3L525.4 142.3L525.4 150L524.3 150L524.3 142.3ZM533.2 150L532.0 150L535.2 141.3L536.4 141.3L539.7 150L538.5 150L537.6 147.6L534.0 147.6L533.2 150ZM534.4 146.6L537.3 146.6L536.6 144.8Q536.5 144.3 536.2 143.6L536.2 143.6Q536.1 143.0 535.8 142.2L535.8 142.2Q535.5 143.0 535.4 143.6L535.4 143.6Q535.1 144.4 535.0 144.8L535.0 144.8L534.4 146.6Z M550.8 150L549.6 150L552.8 141.3L554.1 141.3L557.3 150L556.1 150L555.3 147.6L551.7 147.6L550.8 150ZM552.0 146.6L554.9 146.6L554.3 144.8Q554.1 144.3 553.9 143.6L553.9 143.6Q553.7 143.0 553.5 142.2L553.5 142.2Q553.2 143.0 553.0 143.6L553.0 143.6Q552.8 144.4 552.6 144.8L552.6 144.8L552.0 146.6ZM562.8 150L561.7 150L561.7 141.3L563.0 141.3L566.5 146.9Q566.7 147.1 566.9 147.4Q567.1 147.8 567.3 148.2L567.3 148.2Q567.4 148.4 567.6 148.7L567.6 148.7Q567.5 148.4 567.5 148.1L567.5 148.1Q567.5 147.7 567.5 147.3Q567.5 146.9 567.5 146.6L567.5 146.6L567.5 141.3L568.6 141.3L568.6 150L567.3 150L564.1 145.0Q563.9 144.7 563.7 144.3Q563.5 144.0 563.2 143.4L563.2 143.4Q563.0 143.1 562.7 142.6L562.7 142.6Q562.7 143.0 562.7 143.4L562.7 143.4Q562.8 144.0 562.8 144.4Q562.8 144.8 562.8 145.0L562.8 145.0L562.8 150ZM574.1 150L573.0 150L576.1 141.3L577.4 141.3L580.6 150L579.5 150L578.6 147.6L575.0 147.6L574.1 150ZM575.3 146.6L578.2 146.6L577.6 144.8Q577.4 144.3 577.2 143.6L577.2 143.6Q577.0 143.0 576.8 142.2L576.8 142.2Q576.5 143.0 576.3 143.6L576.3 143.6Q576.1 144.4 575.9 144.8L575.9 144.8L575.3 146.6ZM590.2 150L585.0 150L585.0 141.3L586.1 141.3L586.1 149.0L590.2 149.0L590.2 150ZM598.4 150L597.2 150L597.2 146.4L594.0 141.3L595.3 141.3L597.0 144.1Q597.3 144.6 597.6 145.0L597.6 145.0Q597.7 145.2 597.8 145.5L597.8 145.5Q597.9 145.2 598.1 145.0L598.1 145.0Q598.3 144.5 598.6 144.1L598.6 144.1L600.3 141.3L601.6 141.3L598.4 146.4L598.4 150ZM608.2 142.3L605.4 142.3L605.4 141.3L612.0 141.3L612.0 142.3L609.3 142.3L609.3 150L608.2 150L608.2 142.3ZM616.7 141.3L617.8 141.3L617.8 150L616.7 150L616.7 141.3ZM626.4 150.1L626.4 150.1Q625.3 150.1 624.4 149.6Q623.6 149.0 623.1 148.0Q622.6 147.0 622.6 145.6L622.6 145.6Q622.6 144.3 623.1 143.2Q623.6 142.2 624.4 141.7Q625.3 141.2 626.4 141.2L626.4 141.2Q627.1 141.2 627.7 141.3Q628.3 141.5 628.7 141.9Q629.2 142.3 629.5 142.8Q629.8 143.3 629.9 144.0L629.9 144.0L628.8 144.0Q628.7 143.6 628.5 143.2Q628.3 142.9 628.0 142.7Q627.6 142.4 627.2 142.3Q626.9 142.2 626.4 142.2L626.4 142.2Q625.6 142.2 625.0 142.6Q624.4 143.0 624.0 143.8Q623.6 144.5 623.6 145.6L623.6 145.6Q623.6 146.8 624.0 147.5Q624.4 148.3 625.0 148.7Q625.6 149.1 626.4 149.1L626.4 149.1Q626.9 149.1 627.2 149.0Q627.6 148.8 628.0 148.6Q628.3 148.4 628.5 148.0Q628.7 147.7 628.8 147.3L628.8 147.3L629.9 147.3Q629.8 147.9 629.5 148.4Q629.2 149.0 628.7 149.3Q628.3 149.7 627.7 149.9Q627.1 150.1 626.4 150.1ZM637.5 150.2L637.5 150.2Q636.5 150.2 635.8 149.8Q635.1 149.5 634.7 149.0Q634.3 148.4 634.3 147.7L634.3 147.7L635.4 147.7Q635.5 148.2 635.8 148.5Q636.0 148.8 636.5 149.0Q636.9 149.2 637.5 149.2L637.5 149.2Q638.0 149.2 638.5 149.0Q639.0 148.8 639.3 148.4Q639.5 148.1 639.5 147.6L639.5 147.6Q639.5 147.2 639.3 146.9Q639.1 146.7 638.7 146.5Q638.3 146.3 637.8 146.2L637.8 146.2L636.8 145.9Q635.7 145.6 635.1 145.0Q634.5 144.5 634.5 143.6L634.5 143.6Q634.5 142.9 634.9 142.3Q635.3 141.8 636.0 141.5Q636.7 141.2 637.5 141.2L637.5 141.2Q638.4 141.2 639.1 141.5Q639.7 141.8 640.1 142.3Q640.5 142.8 640.5 143.5L640.5 143.5L639.4 143.5Q639.3 142.8 638.8 142.5Q638.3 142.1 637.5 142.1L637.5 142.1Q636.9 142.1 636.5 142.3Q636.1 142.5 635.8 142.8Q635.6 143.1 635.6 143.6L635.6 143.6Q635.6 144.0 635.9 144.3Q636.2 144.6 636.6 144.7Q637.0 144.9 637.3 145.0L637.3 145.0L638.2 145.2Q638.5 145.3 638.9 145.5Q639.4 145.6 639.7 145.9Q640.1 146.2 640.4 146.6Q640.6 147.0 640.6 147.6L640.6 147.6Q640.6 148.3 640.3 148.9Q639.9 149.5 639.2 149.8Q638.5 150.2 637.5 150.2Z "/></g><style>

    @keyframes pulse-glow { 0%,100%{opacity:0.3} 50%{opacity:1} }
    @keyframes flicker { 0%,94%,100%{opacity:1} 95%{opacity:0.5} 98%{opacity:0.85} }
    #d1{animation:pulse-glow 2s ease-in-out infinite}
    #d2{animation:pulse-glow 2s ease-in-out 0.7s infinite}
    #nametext{animation:flicker 5s ease-in-out infinite}
  
</style>
</svg>